<?xml version="1.0" standalone="no"?>
<!DOCTYPE svg PUBLIC "-//W3C//DTD SVG 20010904//EN"
 "http://www.w3.org/TR/2001/REC-SVG-20010904/DTD/svg10.dtd">
<svg version="1.0" xmlns="http://www.w3.org/2000/svg"
 width="1024.000000pt" height="1024.000000pt" viewBox="0 0 1024.000000 1024.000000"
 preserveAspectRatio="xMidYMid meet">

<g transform="translate(0.000000,1024.000000) scale(0.100000,-0.100000)"
fill="#000000" stroke="none">
<path d="M0 5120 l0 -5120 5120 0 5120 0 0 5120 0 5120 -5120 0 -5120 0 0
-5120z m5393 2668 c21 -25 22 -71 1 -89 -14 -11 -14 -13 0 -21 21 -12 20 -61
-1 -86 -28 -32 -59 -36 -82 -13 -12 12 -21 17 -21 11 0 -16 -38 -31 -64 -24
-47 11 -72 114 -29 114 14 0 14 2 0 18 -19 21 -22 64 -7 93 8 14 21 19 50 19
21 0 40 -5 42 -12 3 -8 11 -7 28 5 28 20 57 14 83 -15z m-1405 -498 c3 -81 0
-108 -22 -184 -24 -83 -68 -169 -102 -196 -23 -20 -20 77 4 99 9 9 33 34 52
56 l35 39 -37 -27 c-20 -15 -39 -27 -42 -27 -10 0 -7 83 4 120 5 18 29 54 52
78 24 25 34 40 23 34 -11 -6 -29 -20 -39 -31 -11 -12 -22 -21 -25 -21 -6 0 4
156 13 200 11 55 15 114 5 99 -5 -7 -9 -35 -9 -61 0 -60 -14 -68 -33 -20 -18
43 -23 21 -5 -28 10 -31 6 -103 -18 -263 l-6 -39 -17 29 c-18 29 -86 93 -99
93 -5 0 15 -24 43 -53 50 -51 65 -85 65 -143 0 -43 -22 -37 -81 22 -32 32 -59
54 -59 48 0 -5 27 -36 61 -69 l61 -60 -5 -52 c-8 -75 -14 -80 -54 -41 -46 44
-71 95 -89 179 -32 152 21 282 180 447 l70 73 35 -103 c27 -80 35 -124 39
-198z m2767 171 c25 -104 17 -205 -22 -263 -33 -50 -126 -118 -131 -96 -6 33
29 86 85 128 32 24 63 48 68 54 12 11 -58 -29 -99 -58 l-29 -20 7 43 c9 58 28
90 75 126 22 17 40 34 41 38 0 5 -18 -6 -40 -23 -23 -18 -43 -30 -45 -28 -3 3
7 54 22 115 31 125 33 125 68 -16z m-78 26 c-13 -52 -23 -73 -29 -65 -5 8 -7
0 -5 -22 2 -19 -3 -55 -11 -79 l-15 -44 -19 24 c-18 22 -18 22 -9 2 12 -24 14
-73 5 -97 -5 -14 -9 -14 -22 -4 -14 11 -15 10 -8 -7 12 -27 9 -58 -7 -97 l-14
-33 -19 40 c-14 30 -18 62 -18 132 1 79 5 98 28 145 23 43 154 194 162 185 1
-1 -7 -37 -19 -80z m-523 -49 c12 -29 30 -59 39 -67 9 -7 14 -17 11 -22 -3 -5
-1 -9 5 -9 13 0 75 -109 67 -118 -4 -3 -27 1 -51 9 -25 9 -42 13 -40 9 3 -5
26 -15 51 -24 52 -17 63 -29 100 -100 l26 -49 -34 7 c-99 19 -176 96 -197 196
-11 51 -15 220 -6 220 3 0 16 -24 29 -52z m97 6 c55 -27 114 -91 141 -150 15
-35 18 -62 16 -131 l-3 -88 -33 55 c-32 53 -33 58 -28 135 2 44 2 69 -1 55
-10 -55 -24 -100 -31 -100 -4 0 -15 20 -26 45 -10 25 -31 58 -47 73 -27 24
-89 120 -89 136 0 10 51 -5 101 -30z m-730 -228 c249 -34 445 -107 652 -246
114 -76 257 -205 257 -232 0 -17 0 -17 -137 -34 -58 -7 -88 -24 -109 -65 l-16
-31 -15 28 c-27 54 -43 64 -96 64 -67 0 -120 -27 -208 -106 -39 -35 -78 -64
-85 -64 -30 0 -11 -21 44 -49 84 -42 176 -64 244 -58 49 4 58 3 63 -13 3 -11
-5 -40 -18 -67 -40 -80 -41 -96 -7 -181 17 -42 43 -89 57 -104 37 -38 101 -61
162 -57 l50 4 16 -41 c24 -63 62 -93 133 -106 53 -10 67 -9 96 5 19 8 37 13
40 10 9 -10 7 -64 -5 -105 -10 -37 -11 -38 -60 -38 -98 0 -136 -17 -222 -99
l-79 -75 49 -13 c67 -18 146 -16 188 4 43 20 50 15 30 -23 -22 -45 -35 -156
-25 -221 16 -113 23 -144 29 -141 3 2 34 32 67 68 107 114 130 186 94 294 -22
66 -22 68 -5 143 16 72 18 76 32 58 50 -65 135 -313 149 -436 5 -47 2 -71 -21
-140 -25 -74 -107 -259 -134 -299 -9 -13 -58 -16 -303 -20 l-293 -5 0 -25 0
-25 268 -3 c184 -2 267 -6 267 -13 0 -23 -132 -179 -235 -277 -436 -416 -1082
-559 -1653 -366 -250 84 -513 256 -692 452 -60 64 -150 183 -150 196 0 3 123
6 274 6 230 0 276 2 286 15 7 8 10 22 6 30 -5 13 -47 15 -305 15 l-300 0 -19
28 c-11 15 -40 69 -65 120 l-46 92 150 0 c126 0 149 2 149 15 0 13 -24 15
-155 15 l-154 0 -22 73 c-34 118 -34 111 -13 103 11 -4 57 -17 104 -28 212
-50 379 29 484 231 37 72 38 74 15 67 -13 -4 -69 -14 -124 -22 -138 -20 -168
-31 -244 -86 -65 -48 -164 -89 -178 -74 -7 7 15 29 114 112 33 28 38 38 45 95
22 188 22 185 -6 243 -15 30 -37 61 -51 70 l-24 16 19 42 c37 81 21 190 -36
249 -24 25 -24 26 -8 65 84 203 203 383 341 515 83 80 268 213 371 267 175 91
380 158 558 181 108 13 298 12 415 -3z m-1270 -18 c0 -10 2 -10 6 0 2 6 19 12
36 12 52 0 107 -12 101 -22 -3 -4 -42 -27 -86 -49 -65 -32 -79 -37 -75 -22 16
55 15 64 -2 27 -15 -33 -32 -48 -87 -78 -37 -21 -86 -53 -108 -73 -40 -34 -41
-34 -44 -12 -9 53 35 129 99 174 36 25 49 14 24 -19 -8 -11 -15 -24 -15 -30 0
-5 13 10 29 35 19 31 39 49 62 56 47 15 59 15 60 1z m138 -65 c-102 -167 -212
-237 -328 -206 l-34 9 26 17 c22 14 34 16 73 7 57 -13 69 -7 20 10 -20 6 -36
18 -36 25 0 26 40 37 109 32 l66 -6 -55 13 -55 13 30 17 c98 57 201 112 204
110 2 -2 -7 -20 -20 -41z m2164 -293 c-30 -85 -57 -157 -59 -159 -3 -3 -9 0
-15 6 -8 8 -4 31 16 85 25 67 106 230 112 225 1 -2 -23 -72 -54 -157z m806 39
c62 -21 152 -73 221 -127 71 -55 71 -55 -5 -48 -133 12 -175 18 -175 25 0 3
18 17 40 30 54 34 43 39 -13 7 -45 -27 -87 -32 -160 -19 l-38 6 47 48 c59 60
51 65 -11 8 -48 -44 -88 -58 -148 -49 l-38 5 50 63 c67 82 50 80 -20 -2 -54
-64 -76 -76 -140 -76 -39 0 -37 12 11 60 96 96 230 120 379 69z m-3485 -166
c-105 -121 -119 -144 -148 -257 -29 -109 -32 -114 -46 -100 -7 7 5 73 35 199
25 104 48 192 52 195 3 3 3 -26 -1 -64 l-7 -70 89 92 c48 51 91 92 95 92 4 0
-27 -39 -69 -87z m3486 -3 c16 -5 51 -26 77 -46 l48 -38 -40 43 -40 44 35 -7
c19 -4 77 -10 129 -13 108 -7 107 -8 -14 -70 -94 -48 -199 -83 -250 -83 -37 0
-43 4 -63 38 -25 43 -54 76 -100 114 l-32 27 110 0 c61 0 124 -4 140 -9z
m-245 -24 c23 -14 63 -51 90 -83 l47 -58 -26 -3 c-48 -6 -130 27 -226 89 -106
70 -105 77 9 78 51 1 73 -4 106 -23z m-3673 -51 c8 -18 8 -28 -1 -39 -10 -11
-9 -19 1 -35 28 -45 -47 -109 -78 -67 -10 15 -12 15 -18 1 -3 -8 -17 -15 -30
-15 -43 0 -76 73 -40 87 15 5 15 7 0 15 -9 5 -16 19 -16 32 0 35 30 56 78 54
23 -1 45 2 48 5 11 10 44 -13 56 -38z m2629 25 c10 -6 26 -24 34 -40 l15 -29
-34 -7 c-23 -4 -46 -1 -67 10 -39 19 -40 19 -34 3 3 -7 -20 -25 -60 -45 -36
-19 -65 -36 -65 -38 0 -8 40 5 83 27 21 10 47 19 58 19 32 0 19 -32 -21 -52
-26 -13 -30 -18 -15 -18 12 0 36 13 55 30 23 19 46 29 68 30 l34 0 -19 -32
c-22 -37 -60 -51 -122 -43 -37 4 -147 33 -159 41 -2 2 17 22 42 47 36 34 53
43 74 41 25 -3 25 -3 3 4 -20 6 -21 9 -9 19 20 17 80 42 101 43 10 0 27 -5 38
-10z m637 -6 c29 -20 74 -118 74 -162 0 -18 -7 -41 -16 -51 -25 -27 -20 -31
28 -25 39 6 47 3 69 -20 45 -48 42 -139 -5 -186 -37 -37 -101 -56 -136 -40
-23 10 -24 9 -17 -12 4 -13 9 -51 12 -85 5 -59 4 -64 -25 -93 -17 -17 -41 -30
-55 -30 -13 0 -32 -9 -43 -21 -15 -17 -27 -20 -61 -16 -80 9 -123 66 -123 167
l0 31 -33 -25 c-43 -33 -86 -41 -130 -27 -42 14 -87 57 -87 82 0 10 -9 33 -20
51 -23 38 -25 66 -8 102 22 49 53 60 166 58 65 -1 101 2 97 8 -3 6 -12 10 -20
10 -7 0 -25 14 -39 31 -22 25 -26 27 -26 11 0 -10 10 -24 23 -29 19 -9 16 -11
-29 -17 -70 -10 -106 9 -122 62 -17 57 -15 67 18 105 17 19 30 43 30 54 0 30
21 50 65 62 80 22 141 9 170 -35 10 -16 15 -48 14 -106 0 -46 2 -96 6 -113 7
-28 6 -29 -7 -10 -8 11 -23 44 -33 73 -18 50 -35 68 -35 37 0 -9 12 -43 26
-76 14 -34 23 -63 21 -65 -2 -3 -22 17 -43 43 -42 52 -53 63 -70 63 -6 0 6
-18 27 -41 38 -42 54 -75 38 -84 -5 -3 -31 -9 -59 -12 -72 -8 -58 -27 18 -24
34 1 62 0 62 -2 0 -3 -24 -13 -52 -23 -61 -19 -78 -31 -78 -52 0 -13 2 -13 18
0 15 13 79 48 89 48 12 0 -13 -59 -34 -77 -27 -26 -19 -31 14 -8 11 8 24 26
27 39 6 25 46 57 46 37 0 -6 -11 -36 -25 -67 -14 -31 -25 -59 -25 -62 0 -12
44 36 61 68 11 19 18 28 17 20 0 -8 4 -28 10 -43 7 -16 12 -37 12 -48 0 -10 5
-19 10 -19 13 0 13 2 -5 85 -8 38 -13 71 -11 72 2 2 15 -24 29 -57 15 -33 29
-60 33 -60 3 0 3 8 0 17 -6 15 -5 15 11 1 36 -30 49 -34 30 -8 -89 124 -102
169 -26 92 51 -52 79 -65 79 -37 0 8 -5 15 -10 15 -6 0 -27 16 -47 35 l-36 35
32 0 c19 0 30 -4 26 -10 -3 -5 -1 -10 6 -10 7 0 21 -7 31 -17 10 -9 21 -13 25
-9 4 4 -3 16 -17 27 l-25 20 23 16 c13 9 22 26 22 40 0 23 -3 25 -32 19 -63
-14 -128 -23 -128 -19 0 13 28 53 62 91 22 24 37 47 33 50 -4 4 -24 -13 -46
-38 -39 -45 -50 -40 -29 14 5 14 7 33 3 42 -7 20 -33 -47 -33 -88 0 -47 -17
-40 -23 10 -13 106 9 182 62 215 34 21 119 22 149 1z m-40 -314 c-10 -15 -24
-20 -57 -20 -51 0 -50 4 4 23 59 22 68 21 53 -3z m-2993 -60 c13 -12 29 -35
35 -50 6 -15 30 -42 52 -60 92 -75 91 -197 -2 -245 -16 -8 -57 -19 -92 -25
-101 -16 -162 -28 -183 -36 -13 -4 -17 -4 -10 3 6 5 32 18 58 27 31 12 52 27
59 42 7 14 17 23 25 20 7 -3 13 1 13 9 0 8 -9 15 -20 15 -11 0 -20 -6 -20 -14
0 -14 -26 -33 -70 -53 l-26 -11 4 67 c3 36 8 68 13 69 15 6 10 52 -5 52 -9 0
-15 -21 -19 -73 -4 -39 -13 -90 -22 -112 l-15 -40 6 68 c4 45 2 67 -5 67 -6 0
-11 -4 -11 -10 0 -5 -6 -10 -14 -10 -17 0 -28 -27 -21 -51 12 -37 -2 -18 -40
56 -37 71 -55 91 -55 63 0 -7 16 -44 34 -83 19 -38 34 -71 32 -72 -1 -2 -41
28 -89 67 -48 38 -89 65 -92 59 -8 -12 3 -29 19 -29 7 0 38 -21 68 -47 31 -27
71 -60 89 -75 19 -15 29 -27 22 -27 -6 -1 -18 5 -25 12 -20 21 -78 37 -105 31
-19 -5 -25 -2 -30 15 -6 24 -31 28 -40 6 -8 -21 -5 -23 70 -44 58 -16 107 -45
95 -56 -2 -2 -29 -11 -60 -19 -71 -18 -98 -33 -98 -51 0 -19 14 -19 30 -1 13
16 108 51 116 43 3 -2 -20 -30 -50 -60 -58 -58 -70 -87 -36 -87 16 0 19 5 14
28 -4 23 1 31 33 51 21 14 50 36 66 50 22 20 27 22 27 8 0 -9 -3 -17 -8 -17
-4 0 -15 -26 -24 -57 -23 -75 -25 -91 -13 -93 5 0 15 22 21 50 13 60 34 89 34
48 0 -14 7 -32 16 -39 9 -7 20 -22 25 -34 8 -17 9 -16 4 5 -3 14 -8 57 -11 95
l-4 70 29 -85 c17 -47 30 -93 31 -102 0 -10 5 -18 10 -18 12 0 12 6 0 51 -5
19 -14 57 -19 83 l-9 47 25 -23 c14 -13 38 -42 55 -65 16 -24 33 -43 38 -43
22 0 7 32 -41 84 -42 46 -47 56 -31 56 12 0 24 -4 27 -10 3 -5 12 -10 18 -10
7 0 6 4 -3 10 -13 8 -12 10 3 10 34 0 16 18 -25 24 -72 11 -81 26 -16 26 51 0
57 2 60 22 3 20 10 22 85 26 71 3 87 1 120 -18 82 -47 113 -132 79 -214 -9
-21 -16 -57 -16 -79 0 -42 -19 -66 -54 -67 -10 0 -33 -15 -50 -34 -60 -63
-105 -72 -170 -32 -46 27 -146 143 -146 168 0 11 -5 15 -14 12 -11 -4 -13 -12
-5 -30 12 -33 -6 -67 -65 -124 -98 -95 -171 -105 -233 -32 -12 14 -41 33 -65
42 -41 15 -44 19 -60 75 -24 87 -23 145 5 185 42 62 61 70 190 77 65 3 117 10
117 16 0 6 -37 7 -99 3 -84 -6 -106 -5 -137 10 -40 19 -88 86 -104 145 -21 76
26 188 83 203 13 3 37 23 54 44 39 48 74 57 144 36 88 -26 139 -96 139 -190 0
-16 7 -39 15 -50 14 -18 14 -18 15 8 0 15 -4 30 -10 33 -15 9 -12 102 4 133
19 37 64 78 106 97 48 21 124 14 155 -15z m3556 -62 c0 -10 2 -10 6 0 6 16 48
16 62 -1 16 -20 22 -85 9 -112 -10 -22 -18 -25 -64 -25 -43 0 -56 4 -68 22
-18 25 -21 58 -7 58 5 0 7 9 4 20 -3 11 0 27 7 35 15 18 50 20 51 3z m-327
-190 c14 -53 30 -136 37 -185 14 -108 6 -373 -15 -458 -7 -33 -14 -57 -15 -53
-1 4 -10 70 -21 147 -21 142 -65 292 -116 393 -28 56 -30 75 -8 106 9 13 17
48 19 80 2 55 3 57 34 63 18 4 35 10 38 13 12 12 22 -10 47 -106z m-348 -348
c7 0 11 -6 8 -14 -3 -7 -38 -21 -77 -31 -40 -10 -79 -20 -87 -22 -8 -3 1 9 20
27 36 31 84 51 108 44 8 -2 20 -4 28 -4z m-35 -64 c-20 -23 -77 -46 -116 -46
-59 0 -37 22 41 41 89 22 89 22 75 5z m105 -163 c-3 -54 -8 -111 -11 -128 -3
-16 4 -5 15 25 10 30 19 82 19 115 1 57 2 59 17 37 35 -51 36 -83 4 -147 -31
-63 -87 -131 -98 -121 -3 4 -8 46 -10 95 -4 83 -2 92 27 155 18 36 35 66 38
66 3 0 3 -44 -1 -97z m-2346 25 c0 -18 -83 -103 -127 -131 -85 -53 -204 -72
-272 -44 l-32 14 66 18 c63 17 69 17 103 1 37 -17 37 -17 13 2 l-24 19 49 12
c49 12 109 40 87 41 -6 0 -46 -7 -89 -15 -43 -8 -79 -13 -81 -11 -8 7 62 54
105 71 72 29 202 43 202 23z m-795 -43 c32 -31 32 -58 -1 -84 -33 -26 -49 -26
-74 -1 -28 28 -25 64 6 89 34 27 40 26 69 -4z m93 -227 c19 -74 19 -78 2 -78
-12 0 -20 10 -24 31 -7 35 -8 135 -2 128 2 -2 13 -39 24 -81z m46 -274 c33
-13 2 -24 -67 -26 l-72 -1 65 -6 64 -6 -40 -42 -41 -43 -84 -1 c-46 0 -93 -4
-103 -8 -10 -4 22 -5 73 -3 50 2 91 0 91 -4 0 -5 -27 -37 -59 -72 l-60 -62
-63 -2 -63 -1 50 -6 c56 -7 55 -5 42 -106 -7 -50 -7 -50 12 14 16 55 28 73 87
130 37 36 62 56 56 44 -7 -12 -11 -52 -11 -90 l1 -68 12 83 c10 71 16 87 44
114 17 18 34 29 37 26 3 -3 14 -43 24 -89 14 -58 20 -73 20 -49 0 19 -6 64
-13 100 l-14 65 33 34 34 35 12 -30 c7 -16 14 -57 17 -90 6 -81 -15 -123 -87
-180 -76 -59 -158 -90 -274 -103 -147 -17 -144 -19 -64 56 40 38 74 69 76 70
2 2 2 5 0 8 -3 2 -36 -26 -73 -63 l-68 -67 6 50 c28 221 174 395 333 395 28 0
58 -3 67 -6z m319 -530 c21 -15 21 -15 -12 -12 -31 3 -41 12 -100 98 l-64 95
77 -83 c43 -45 88 -89 99 -98z m-22 -144 c0 -19 4 -44 9 -55 6 -15 9 -8 9 28
1 26 5 47 11 47 18 0 60 -75 61 -110 l2 -35 6 33 6 34 21 -24 c29 -31 58 -78
49 -78 -16 0 -122 33 -147 46 -59 30 -96 126 -72 189 10 25 44 -32 45 -75z
m145 71 c41 -25 71 -90 80 -174 6 -64 5 -69 -12 -65 -11 2 -27 19 -36 38 -22
44 -22 48 0 53 9 3 3 5 -13 6 -23 1 -35 9 -48 30 -9 16 -17 32 -17 36 0 3 21
3 46 -1 34 -5 45 -4 40 5 -4 6 -28 11 -54 11 -38 0 -52 5 -79 32 -18 18 -33
36 -33 40 0 16 95 8 126 -11z m2767 -129 c34 -38 10 -142 -33 -142 -14 0 -20
7 -21 23 l-1 22 -6 -22 c-6 -20 -9 -21 -32 -10 -35 17 -46 57 -31 106 12 41
12 41 60 41 33 0 53 -5 64 -18z m-2019 -508 c13 -13 16 -42 16 -165 0 -89 4
-149 10 -149 5 0 33 28 61 63 60 72 72 81 99 72 30 -10 24 -33 -25 -96 l-44
-56 25 -24 c35 -33 88 -139 76 -151 -5 -5 -22 -8 -38 -6 -24 2 -34 13 -59 60
-32 61 -46 70 -82 54 -19 -8 -23 -17 -23 -57 0 -51 -21 -76 -54 -63 -14 5 -16
38 -16 260 0 230 2 254 18 263 9 6 18 11 19 11 1 0 9 -7 17 -16z m-1233 -195
c23 -12 24 -27 4 -53 -13 -18 -19 -18 -66 -8 -36 9 -56 9 -70 1 -32 -17 -18
-31 61 -60 84 -30 110 -56 110 -108 0 -90 -138 -130 -237 -69 -39 23 -40 29
-13 53 18 16 25 17 54 7 18 -7 52 -12 75 -12 38 0 42 2 39 22 -2 17 -18 26
-73 45 -78 26 -105 50 -105 97 0 69 60 110 149 101 29 -3 62 -10 72 -16z m664
-8 c48 -28 66 -70 71 -168 2 -49 7 -100 10 -115 3 -16 1 -28 -4 -28 -6 0 -17
-2 -25 -5 -8 -4 -25 5 -38 19 l-23 24 -30 -21 c-61 -44 -152 -14 -176 57 -15
45 -4 81 32 111 32 27 94 34 142 15 33 -12 36 10 6 40 -16 16 -33 20 -80 20
-49 0 -61 3 -70 20 -14 26 -7 37 33 49 41 13 114 4 152 -18z m1483 17 c8 -8
12 -59 12 -165 0 -146 -1 -153 -22 -164 -18 -10 -24 -8 -39 9 l-16 21 -39 -19
c-21 -11 -47 -20 -59 -20 -30 0 -83 36 -104 71 -21 35 -37 174 -26 233 7 34
10 37 39 34 l31 -3 5 -108 c5 -99 7 -111 29 -128 31 -25 60 -24 96 5 29 24 30
26 34 128 3 98 9 117 37 118 5 0 15 -5 22 -12z m502 -22 l5 -28 19 21 c52 57
155 46 191 -21 19 -36 19 -37 1 -57 -25 -27 -29 -27 -64 9 -34 34 -57 37 -90
14 -37 -26 -52 -67 -52 -145 0 -53 -4 -77 -17 -91 -21 -23 -40 -23 -53 1 -15
29 -13 304 2 319 22 22 52 10 58 -22z m782 24 c88 -25 113 -73 121 -242 l5
-88 -26 0 c-14 0 -34 8 -44 17 -17 15 -21 15 -57 -5 -48 -27 -54 -27 -106 -2
-72 35 -89 118 -35 172 28 27 35 29 88 26 31 -2 65 -8 75 -12 23 -11 22 5 -4
38 -18 23 -27 26 -84 26 -48 0 -64 4 -69 16 -11 28 -7 35 27 49 39 17 61 18
109 5z m-662 -626 c42 -17 51 -37 23 -52 -11 -7 -27 -5 -50 6 -26 12 -37 13
-58 4 -44 -20 -28 -44 42 -67 76 -24 97 -44 97 -89 0 -42 -15 -62 -60 -76 -42
-14 -87 -7 -133 21 -32 19 -33 21 -16 39 18 20 18 20 50 0 41 -25 66 -25 96
-1 30 25 22 33 -61 63 -49 18 -68 30 -78 51 -23 47 3 89 68 110 26 9 38 7 80
-9z m-1979 -21 c23 -23 29 -77 10 -96 -8 -8 -6 -16 6 -29 22 -25 22 -83 0
-106 -14 -13 -39 -18 -117 -20 l-100 -4 0 142 0 142 90 -4 c76 -2 93 -6 111
-25z m419 -113 c0 -133 -1 -140 -20 -140 -22 0 -23 4 -22 160 0 123 0 120 22
120 19 0 20 -7 20 -140z m560 115 c0 -23 -4 -25 -45 -25 l-45 0 0 -115 0 -115
-25 0 -25 0 0 115 0 115 -45 0 c-41 0 -45 2 -45 25 l0 25 115 0 115 0 0 -25z
m520 0 c0 -25 -1 -25 -80 -25 l-80 0 0 -35 0 -35 65 0 c58 0 65 -2 65 -20 0
-16 -8 -19 -62 -22 l-63 -3 -3 -38 -3 -38 79 7 c70 6 80 5 86 -11 4 -10 3 -22
-1 -26 -4 -4 -53 -9 -108 -10 l-100 -2 -3 142 -3 141 106 0 105 0 0 -25z"/>
<path d="M5267 7706 c-15 -22 -15 -25 3 -41 15 -13 23 -14 39 -5 25 13 27 33
5 54 -21 22 -29 20 -47 -8z"/>
<path d="M3760 7376 c0 -4 12 -23 28 -40 15 -17 35 -43 45 -56 18 -24 18 -24
0 6 -24 41 -73 101 -73 90z"/>
<path d="M6148 7353 c7 -3 16 -2 19 1 4 3 -2 6 -13 5 -11 0 -14 -3 -6 -6z"/>
<path d="M6243 7385 c0 -22 2 -30 4 -17 2 12 2 30 0 40 -3 9 -5 -1 -4 -23z"/>
<path d="M5176 6741 c5 -32 2 -45 -15 -67 -26 -33 -18 -49 15 -28 20 14 24 24
24 65 0 46 2 49 25 49 30 0 34 -26 8 -47 -17 -14 -17 -14 0 -9 10 3 25 6 33 6
8 0 14 10 14 25 0 24 2 25 65 25 37 0 65 4 65 10 0 6 -47 10 -120 10 l-120 0
6 -39z"/>
<path d="M5290 6711 c0 -5 18 -7 40 -4 33 5 40 3 40 -11 0 -13 -13 -16 -82
-17 -78 0 -82 -1 -60 -16 19 -13 22 -25 22 -74 0 -51 -3 -59 -19 -59 -19 0
-31 18 -31 46 0 8 7 14 15 14 16 0 17 5 7 33 -7 15 -11 14 -42 -12 -26 -22
-30 -30 -17 -31 13 0 17 -8 17 -33 0 -33 1 -33 43 -31 l42 2 5 73 5 74 47 2
47 2 3 -62 c3 -61 2 -62 -27 -74 l-30 -11 45 -1 45 -1 -3 100 -3 100 -55 0
c-30 0 -54 -4 -54 -9z"/>
<path d="M5301 6626 c-10 -11 -7 -14 14 -12 14 0 25 7 25 14 0 16 -25 15 -39
-2z"/>
<path d="M5293 6588 c2 -7 12 -13 22 -13 10 0 20 6 23 13 2 7 -6 12 -23 12
-17 0 -25 -5 -22 -12z"/>
<path d="M4350 6489 c-38 -15 -80 -60 -80 -86 0 -30 12 -29 62 7 48 35 104 40
157 12 48 -24 69 -58 79 -122 l7 -55 125 0 125 0 0 25 c0 25 -1 25 -97 28 -69
2 -98 6 -98 15 0 64 -52 140 -115 168 -43 20 -125 24 -165 8z"/>
<path d="M5260 6320 l0 -49 -50 -7 c-43 -6 -48 -9 -38 -21 8 -10 25 -13 50
-11 l38 4 0 -93 c0 -76 3 -93 15 -93 12 0 15 17 15 94 l0 94 40 -5 c25 -4 46
-1 55 7 26 22 17 33 -20 26 -53 -10 -76 0 -69 30 8 33 -3 74 -21 74 -11 0 -15
-12 -15 -50z"/>
<path d="M5070 5780 c-143 -8 -277 -24 -347 -42 l-43 -10 0 -77 c0 -97 22
-188 63 -265 42 -81 152 -195 223 -233 l56 -30 -301 -8 c-275 -7 -302 -9 -311
-25 -7 -13 -5 -24 8 -39 14 -17 30 -21 102 -23 80 -3 85 -4 88 -26 l4 -23
-159 5 c-87 2 -168 0 -181 -5 -31 -12 -38 -36 -17 -59 18 -20 37 -20 986 -20
622 0 977 4 994 10 19 7 26 16 23 32 -5 36 -43 48 -148 47 -229 -2 -280 1
-280 15 0 20 32 26 142 26 87 0 98 2 108 20 8 14 8 26 0 40 -10 18 -21 20
-119 20 -59 0 -190 3 -290 7 l-182 6 60 34 c79 44 176 151 224 246 62 125 89
305 48 326 -32 18 -182 40 -307 46 -243 11 -312 12 -444 5z m524 -82 c116 -14
93 -23 -101 -39 -172 -14 -514 -6 -613 14 l-65 13 130 12 c72 7 148 14 170 16
68 7 385 -4 479 -16z m-789 -85 c20 -94 30 -124 57 -175 43 -80 128 -171 206
-219 49 -30 59 -39 37 -34 -40 9 -89 32 -152 72 -97 60 -171 190 -188 331 -6
48 -5 52 14 52 14 0 22 -8 26 -27z"/>
<path d="M5277 4513 c-4 -3 -7 -12 -7 -20 0 -17 26 -17 33 1 8 21 -11 35 -26
19z"/>
<path d="M5213 4448 c2 -7 10 -13 17 -13 7 0 15 6 18 13 2 7 -5 12 -18 12 -13
0 -20 -5 -17 -12z"/>
<path d="M5330 4445 c0 -9 5 -15 11 -13 6 2 11 8 11 13 0 5 -5 11 -11 13 -6 2
-11 -4 -11 -13z"/>
<path d="M5277 4413 c-13 -12 -7 -33 8 -33 8 0 15 9 15 20 0 20 -11 26 -23 13z"/>
<path d="M7246 6702 c5 -4 23 -18 39 -32 l30 -25 -29 33 c-17 17 -34 32 -40
32 -6 0 -6 -3 0 -8z"/>
<path d="M7310 6636 c0 -2 8 -10 18 -17 15 -13 16 -12 3 4 -13 16 -21 21 -21
13z"/>
<path d="M3341 6589 c-11 -18 -10 -24 1 -35 11 -10 16 -10 33 2 19 14 19 14
-1 34 -19 20 -19 20 -33 -1z"/>
<path d="M6632 6430 c-30 -12 -81 -60 -63 -60 7 0 25 8 39 19 15 10 37 22 50
25 23 8 31 26 10 25 -7 0 -23 -4 -36 -9z"/>
<path d="M6471 6154 c0 -11 3 -14 6 -6 3 7 2 16 -1 19 -3 4 -6 -2 -5 -13z"/>
<path d="M3573 6028 c-21 -28 -44 -59 -52 -70 -8 -10 -9 -18 -3 -18 6 0 13 8
16 18 8 25 76 93 87 86 5 -3 9 4 9 15 0 33 -15 25 -57 -31z"/>
<path d="M3613 5828 c-17 -19 -16 -19 22 -16 27 2 40 8 40 18 0 22 -41 21 -62
-2z"/>
<path d="M3600 5763 c0 -12 47 -42 65 -42 18 -1 18 1 -5 19 -25 19 -60 33 -60
23z"/>
<path d="M7231 6168 c-11 -17 -10 -23 2 -35 13 -14 16 -13 22 6 3 11 2 27 -2
36 -7 12 -11 11 -22 -7z"/>
<path d="M4219 5449 l-24 -20 28 17 c15 9 27 18 27 20 0 8 -8 4 -31 -17z"/>
<path d="M4170 5420 c-9 -6 -10 -10 -3 -10 6 0 15 5 18 10 8 12 4 12 -15 0z"/>
<path d="M3491 4554 c0 -11 3 -14 6 -6 3 7 2 16 -1 19 -3 4 -6 -2 -5 -13z"/>
<path d="M6770 4169 c0 -11 -4 -17 -10 -14 -5 3 -10 2 -10 -2 0 -13 39 -34 45
-24 5 10 -11 61 -20 61 -3 0 -5 -9 -5 -21z"/>
<path d="M4123 3325 c-49 -34 -12 -83 53 -71 33 7 64 29 64 47 0 9 -31 24 -73
34 -12 3 -32 -1 -44 -10z"/>
<path d="M6920 3311 c-13 -25 -13 -27 6 -45 20 -20 57 -20 94 -1 55 29 27 65
-49 65 -30 0 -43 -5 -51 -19z"/>
<path d="M4220 2805 c0 -32 3 -35 29 -35 75 0 108 19 95 55 -5 11 -22 15 -65
15 l-59 0 0 -35z"/>
<path d="M4243 2723 c-19 -4 -23 -11 -23 -40 l0 -36 61 6 c66 6 82 18 69 51
-5 16 -16 21 -46 22 -21 1 -49 0 -61 -3z"/>
</g>
</svg>
