<?xml version="1.0" standalone="no"?>
<!DOCTYPE svg PUBLIC "-//W3C//DTD SVG 20010904//EN"
 "http://www.w3.org/TR/2001/REC-SVG-20010904/DTD/svg10.dtd">
<svg version="1.0" xmlns="http://www.w3.org/2000/svg"
 width="8647.000000pt" height="9415.000000pt" viewBox="0 0 8647.000000 9415.000000"
 preserveAspectRatio="xMidYMid meet">

<g transform="translate(0.000000,9415.000000) scale(0.100000,-0.100000)"
fill="#000000" stroke="none">
<path d="M0 47075 l0 -47075 43230 0 43230 0 0 47075 0 47075 -43230 0 -43230
0 0 -47075z m44510 45406 c362 -105 685 -437 815 -835 51 -158 60 -222 59
-416 -1 -155 -4 -186 -27 -272 -30 -112 -86 -239 -146 -327 -23 -33 -93 -117
-156 -185 -63 -69 -115 -127 -115 -129 0 -3 50 -45 112 -94 129 -102 193 -177
249 -288 259 -522 -32 -1287 -616 -1620 -168 -95 -343 -137 -494 -116 -180 24
-301 87 -535 278 -180 148 -253 192 -290 175 -13 -6 -35 -37 -55 -77 -79 -166
-286 -295 -573 -357 -135 -28 -393 -31 -508 -5 -211 48 -396 198 -572 462
-335 504 -426 1151 -197 1400 64 70 123 95 242 106 111 9 162 23 171 44 8 21
-52 131 -135 248 -147 209 -213 338 -254 501 -66 261 -54 689 25 928 36 109
67 170 137 276 87 131 185 192 358 221 161 28 584 39 750 21 201 -23 300 -66
454 -199 l105 -90 90 49 c484 259 544 288 661 314 104 23 344 16 445 -13z
m-24999 -4057 c75 -209 392 -1159 529 -1584 409 -1270 560 -1928 625 -2713 32
-391 39 -650 39 -1402 1 -947 -6 -1044 -104 -1487 -353 -1594 -1048 -3242
-1715 -4068 -108 -134 -329 -353 -381 -377 -31 -15 -38 -16 -61 -3 -14 8 -34
26 -44 40 -51 69 -74 297 -66 634 9 338 33 515 92 694 69 204 102 245 964
1196 481 531 653 727 646 735 -6 5 -103 -61 -485 -333 -539 -383 -687 -476
-762 -476 -83 0 -92 60 -85 595 9 632 45 1069 108 1315 110 424 381 859 934
1495 354 407 494 590 468 616 -34 34 -395 -242 -759 -582 -124 -116 -299 -266
-353 -303 -29 -20 -45 -26 -52 -19 -25 25 -32 237 -20 663 31 1140 106 1985
261 2940 84 519 122 840 139 1185 9 168 2 346 -14 388 -10 23 -27 21 -53 -6
-77 -82 -128 -389 -167 -1007 -40 -624 -68 -808 -135 -880 -23 -25 -36 -30
-73 -30 -85 0 -130 59 -320 425 -240 462 -298 539 -309 408 -11 -132 42 -385
170 -813 l89 -295 -13 -430 c-34 -1148 -58 -1459 -185 -2405 -110 -823 -283
-1992 -304 -2049 -9 -25 -34 8 -146 197 -60 102 -140 226 -178 276 -360 478
-1320 1414 -1593 1552 -62 31 -88 32 -88 0 0 -53 236 -337 734 -881 356 -389
515 -582 662 -805 232 -353 348 -650 418 -1070 67 -403 61 -841 -15 -991 -33
-65 -135 -99 -235 -79 -213 44 -454 228 -1099 840 -539 511 -837 768 -960 830
l-40 20 -3 -25 c-4 -30 20 -73 105 -182 147 -190 402 -460 1073 -1138 283
-286 603 -610 712 -720 l197 -200 -39 -425 c-72 -781 -120 -1105 -200 -1352
-53 -164 -111 -238 -186 -238 -165 0 -749 517 -1091 966 -570 749 -1019 2028
-1162 3309 -106 945 17 1899 365 2833 416 1117 1157 2270 2218 3454 619 691
1852 1966 1876 1942 6 -6 38 -87 71 -180z m48689 -210 c55 -79 127 -244 175
-399 174 -560 441 -1645 529 -2146 124 -708 122 -1860 -6 -2484 -128 -627
-317 -1078 -624 -1488 -461 -615 -1412 -1402 -1886 -1561 -82 -28 -183 -35
-220 -15 -30 16 -48 69 -54 166 -31 439 402 1153 1051 1733 173 155 481 409
673 557 470 362 734 575 877 708 l60 56 -115 -56 c-368 -179 -792 -432 -1418
-847 -478 -318 -611 -398 -660 -398 -26 0 -26 -10 -7 137 33 248 122 707 200
1021 140 569 373 959 816 1369 68 63 273 239 454 391 333 279 588 518 598 560
4 18 0 26 -18 34 -21 10 -36 4 -117 -45 -51 -30 -192 -123 -313 -206 -469
-321 -813 -548 -884 -585 l-74 -39 -19 23 c-46 57 -7 305 186 1180 318 1442
534 2182 685 2348 43 47 72 43 111 -14z m-478 -19 c14 -32 -2 -110 -133 -635
-177 -711 -326 -1257 -393 -1445 -54 -149 -149 -335 -200 -390 -51 -54 -73
-56 -97 -6 -16 35 -44 57 -53 43 -16 -27 -28 -183 -36 -491 -18 -653 -46 -819
-260 -1515 -98 -318 -171 -515 -196 -523 -12 -4 -76 72 -286 337 -159 201
-233 284 -248 275 -10 -6 9 -78 42 -160 108 -270 168 -540 189 -852 32 -499
-92 -1053 -237 -1053 -27 0 -133 55 -256 133 -92 57 -135 74 -150 59 -10 -10
20 -136 77 -321 57 -184 69 -270 69 -491 0 -217 -12 -319 -69 -557 -79 -330
-291 -882 -385 -1003 -16 -20 -22 -23 -37 -14 -58 35 -418 878 -482 1131 -132
518 -180 1934 -96 2828 36 377 90 606 232 985 161 431 278 634 632 1105 544
721 1302 1597 1890 2186 293 293 415 399 457 399 8 0 20 -11 26 -25z m-9838
-1374 c54 -82 216 -392 509 -976 307 -610 392 -749 608 -995 170 -194 182
-217 186 -370 5 -155 6 -157 52 -170 105 -28 307 -271 573 -690 456 -718 723
-1342 595 -1389 -25 -9 -149 2 -287 25 -140 24 -300 65 -539 139 -418 128
-654 186 -676 164 -19 -20 58 -69 260 -169 211 -104 322 -150 655 -275 619
-233 834 -378 1086 -731 88 -124 150 -224 301 -489 365 -639 722 -1310 705
-1327 -22 -22 -715 138 -1077 247 -480 145 -980 420 -1423 781 -124 101 -436
411 -537 534 -663 804 -942 1555 -1059 2850 -46 509 -77 1832 -57 2462 9 300
13 343 32 402 26 77 27 77 93 -23z m718 -187 c57 -14 222 -65 368 -113 936
-313 1537 -658 2157 -1242 544 -513 971 -1075 1254 -1653 94 -190 153 -337
250 -622 l71 -209 8 -425 c11 -585 11 -1554 0 -1910 -7 -238 -29 -605 -43
-715 -1 -12 -81 112 -208 325 -429 718 -640 1092 -754 1340 l-80 175 6 550 c9
782 10 1613 2 1730 l-7 100 -13 -50 c-7 -27 -47 -201 -89 -385 -154 -676 -323
-1201 -409 -1268 -30 -24 -87 -29 -103 -9 -31 37 -141 243 -357 667 -407 802
-482 917 -871 1351 -370 414 -577 688 -927 1227 -342 527 -577 970 -577 1090
0 30 31 66 65 75 35 10 152 -3 257 -29z m-14162 -4304 c1075 -26 1989 -89
2795 -190 3428 -432 6491 -1411 9285 -2967 1728 -963 3361 -2107 4755 -3333
636 -559 1318 -1232 1588 -1567 89 -111 163 -221 200 -302 26 -55 33 -81 35
-152 3 -72 1 -93 -17 -127 -62 -122 -278 -172 -1396 -321 -1140 -153 -1474
-211 -1760 -307 -280 -94 -535 -253 -727 -453 -147 -153 -239 -297 -508 -798
-63 -117 -117 -213 -120 -213 -3 0 -74 127 -159 283 -457 836 -595 1012 -907
1158 -96 46 -224 81 -378 106 -91 15 -170 18 -446 18 -361 -1 -489 -12 -780
-71 -474 -95 -959 -311 -1472 -655 -368 -246 -687 -498 -1333 -1050 -1022
-873 -1321 -1089 -1635 -1178 -120 -34 -145 -55 -137 -108 22 -132 350 -375
892 -660 861 -453 1767 -772 2765 -973 428 -86 357 -82 1435 -90 1049 -7 1019
-5 1106 -66 101 -69 134 -159 126 -338 -10 -246 -101 -513 -387 -1146 -349
-771 -436 -1047 -447 -1430 -11 -361 76 -727 322 -1355 176 -449 516 -1143
766 -1560 158 -264 289 -427 484 -603 451 -407 1184 -722 1880 -807 320 -40
771 -36 1325 9 157 13 288 21 292 17 3 -3 70 -166 148 -361 214 -534 329 -770
499 -1028 452 -684 1047 -1004 2221 -1196 313 -51 400 -60 595 -60 279 0 385
26 875 214 450 172 535 189 616 118 47 -42 63 -103 75 -298 18 -279 -6 -702
-57 -999 -52 -312 -171 -749 -244 -898 -98 -199 -196 -224 -985 -258 -551 -24
-842 -49 -1130 -100 -770 -136 -1316 -435 -2165 -1184 -387 -342 -1532 -1425
-1678 -1588 -79 -88 -105 -126 -100 -149 4 -21 14 -24 408 -123 524 -133 951
-226 1171 -255 500 -67 1374 -55 1787 25 162 31 456 119 667 199 405 153 496
180 598 180 59 0 71 -3 92 -25 14 -13 25 -30 25 -38 0 -43 -51 -196 -134 -405
-302 -755 -441 -1409 -511 -2402 -54 -764 -18 -1287 171 -2510 122 -793 213
-1228 289 -1397 50 -109 56 -109 167 -9 77 70 446 450 789 811 301 317 738
804 898 1000 772 942 1140 1672 1246 2465 23 171 31 565 16 771 -27 352 -78
575 -283 1234 -233 751 -223 697 -223 1175 0 354 2 397 23 530 61 380 297
1394 377 1618 60 166 111 225 181 208 40 -10 156 -132 231 -241 293 -432 762
-1450 1176 -2555 624 -1667 1177 -3703 1323 -4875 25 -203 30 -650 10 -865
-56 -588 -227 -1214 -588 -2155 -596 -1554 -1699 -3966 -2074 -4531 -99 -151
-164 -192 -371 -233 -514 -103 -1707 -142 -7523 -246 -1896 -34 -2484 -45
-2487 -49 -7 -6 -27 -826 -21 -832 8 -8 945 -41 1393 -49 193 -3 1003 -10
1800 -15 1382 -9 1936 -17 2880 -40 1684 -41 2923 -101 3120 -152 121 -30 113
-112 -33 -356 -648 -1083 -2988 -3672 -4697 -5197 -1925 -1718 -4251 -3245
-6691 -4390 -2572 -1208 -5287 -2028 -8049 -2429 -2327 -339 -4901 -394 -7185
-156 -1026 108 -2246 312 -3290 551 -2162 496 -4123 1198 -6090 2180 -949 474
-1699 896 -2595 1459 -2748 1726 -4962 3635 -6886 5940 -712 853 -1553 1981
-1710 2293 -45 92 -49 124 -16 136 90 34 693 60 1847 81 1002 17 1252 21 2655
35 2637 28 4419 61 4665 85 110 11 264 49 353 86 197 83 277 216 277 459 -1
140 -25 181 -138 233 -219 101 -753 130 -2747 152 -1020 11 -3518 27 -5640 35
-748 3 -1509 8 -1691 11 l-330 6 -168 258 c-463 712 -727 1195 -1519 2780
-395 788 -524 1056 -514 1066 23 24 887 42 2607 54 1863 14 2204 24 2361 70
150 45 232 157 175 242 -54 82 -271 122 -811 148 -423 21 -1288 30 -2891 30
l-1641 0 -191 633 c-443 1465 -652 2230 -652 2394 0 61 15 93 42 93 7 0 165
-46 352 -101 1039 -309 1951 -523 2627 -618 658 -93 1708 -75 2349 40 132 24
355 76 515 120 856 238 1621 628 2300 1173 272 218 696 626 916 881 561 652
1037 1382 1484 2275 267 534 388 823 369 882 -3 11 -15 18 -32 18 -15 0 -171
-29 -347 -65 -518 -106 -992 -189 -2000 -350 -1406 -226 -1969 -341 -2462
-504 -304 -100 -651 -258 -948 -431 -134 -78 -548 -352 -985 -651 -433 -296
-761 -492 -1182 -705 -639 -322 -1273 -535 -1603 -537 -139 -2 -175 19 -175
97 0 138 289 435 1127 1158 174 150 389 335 477 412 276 238 506 448 638 584
263 270 345 423 423 787 79 371 175 1128 254 2000 68 746 84 1069 79 1580 -5
469 -6 476 -106 725 -156 390 -317 699 -538 1030 -147 221 -261 365 -409 519
-132 136 -209 199 -403 330 -81 55 -155 108 -164 118 -17 18 -14 26 48 163
359 792 489 1179 564 1685 111 747 -18 1630 -340 2325 -149 322 -309 561 -585
880 -129 149 -248 303 -292 377 -26 44 -28 56 -27 143 0 115 26 214 120 467
282 759 928 2116 1482 3118 1433 2593 3172 4824 5022 6445 1339 1173 3554
2781 5085 3692 1215 722 3190 1623 4845 2210 2210 783 4593 1334 6375 1472
900 71 2474 104 3605 76z m-19301 -337 c68 -22 118 -69 126 -118 3 -19 7 -51
10 -70 4 -21 14 -39 26 -46 18 -9 30 -1 100 70 114 114 196 149 399 171 184
19 638 7 955 -25 532 -55 961 -170 1007 -271 10 -20 8 -29 -9 -52 -67 -91
-566 -375 -1388 -793 -855 -434 -1286 -612 -1350 -559 -39 33 -6 253 105 686
33 128 60 245 60 260 0 24 -2 25 -17 13 -29 -24 -119 -172 -224 -367 -174
-321 -265 -448 -455 -632 -227 -221 -416 -350 -1189 -813 -822 -493 -1123
-697 -1700 -1152 -415 -327 -605 -461 -669 -472 -29 -4 -39 -1 -61 23 -55 60
-85 220 -85 459 0 237 26 404 92 605 103 317 382 859 571 1110 403 539 1074
1122 1424 1239 80 27 207 29 235 4 23 -21 24 -103 2 -170 -27 -80 -109 -236
-210 -396 -130 -206 -206 -363 -202 -413 2 -20 8 -39 15 -41 28 -9 119 106
363 457 516 744 674 892 1142 1079 221 88 513 175 708 211 123 23 152 24 219
3z m2875 -619 c12 -32 5 -61 -43 -160 -166 -345 -680 -1146 -1065 -1659 -435
-580 -872 -1057 -1314 -1434 -612 -523 -1248 -867 -1896 -1027 -206 -50 -329
-64 -621 -71 -458 -10 -906 38 -1240 133 -197 55 -375 117 -375 130 0 32 400
294 585 384 161 78 202 85 475 85 266 0 301 -4 742 -90 462 -91 659 -113 704
-81 19 14 18 15 -5 40 -45 48 -278 158 -561 266 -292 111 -442 217 -508 360
-53 115 -27 224 80 327 142 137 347 217 668 259 278 36 906 29 1480 -17 135
-10 290 -22 345 -25 91 -5 97 -4 70 9 -71 33 -448 131 -1179 308 -203 49 -371
91 -373 93 -2 2 20 17 49 34 29 16 202 114 383 217 2000 1136 3151 1765 3480
1901 90 38 110 41 119 18z m38150 -3101 c-24 -113 -124 -430 -254 -808 -373
-1088 -1179 -3333 -1453 -4045 -212 -550 -242 -592 -382 -526 -54 25 -124 96
-156 158 -26 50 -24 116 7 284 108 588 402 1359 1005 2645 280 595 825 1669
1035 2035 132 232 217 342 198 257z m10937 -1573 c568 -28 909 -75 1333 -181
1042 -261 2147 -761 3266 -1478 1026 -657 2174 -1531 2267 -1726 15 -31 15
-36 -1 -60 -34 -51 -73 -60 -266 -59 -174 1 -280 10 -1450 125 -1430 140
-2085 229 -2215 302 -114 64 -30 144 613 581 493 334 602 418 602 459 0 18 -5
19 -48 14 -69 -8 -198 -62 -422 -177 -888 -456 -1124 -547 -1545 -590 -258
-27 -808 -9 -1265 41 -381 41 -851 119 -879 145 -35 32 78 165 743 874 287
305 569 614 620 681 20 25 39 60 42 77 6 28 4 32 -14 32 -54 0 -260 -163 -878
-695 -247 -214 -412 -341 -589 -458 -402 -265 -792 -394 -1245 -413 -340 -15
-1255 67 -1304 116 -14 14 11 64 86 177 68 101 210 287 663 863 535 680 775
1020 750 1060 -12 20 -35 9 -107 -49 -138 -111 -481 -472 -993 -1046 -300
-336 -635 -675 -785 -795 -269 -214 -508 -333 -790 -390 -155 -32 -331 -49
-629 -62 -479 -20 -618 10 -637 140 -10 66 17 137 96 255 90 135 252 318 496
562 398 400 735 667 1166 928 188 114 497 268 712 357 309 128 738 256 1101
329 177 36 277 49 440 60 178 12 832 12 1066 1z m-57204 -1883 c-110 -167
-501 -642 -1339 -1629 -1261 -1485 -1574 -1927 -1888 -2659 -119 -277 -235
-639 -424 -1319 -52 -190 -147 -532 -210 -760 -196 -705 -291 -1009 -372
-1176 -77 -162 -128 -189 -222 -115 -79 63 -86 92 -79 319 8 239 42 477 148
1027 223 1163 739 3329 1160 4870 152 556 198 667 237 580 26 -58 16 -252 -58
-1105 -74 -848 -84 -1040 -59 -1040 15 0 837 823 1209 1210 481 500 1182 1211
1414 1433 368 353 506 469 514 432 2 -9 -12 -40 -31 -68z m57428 -1327 c1106
-25 1446 -47 1794 -116 159 -32 218 -52 376 -128 382 -184 734 -421 1578
-1063 103 -79 190 -143 193 -143 14 0 -256 310 -457 525 -264 283 -710 785
-718 807 -5 15 78 5 371 -48 645 -115 1365 -196 2318 -259 364 -24 742 -54
885 -70 451 -51 632 -114 596 -208 -41 -107 -614 -445 -1501 -886 -1781 -885
-3189 -1380 -4190 -1470 -171 -16 -598 -13 -695 4 -116 21 -212 72 -300 159
-94 94 -152 172 -421 566 -441 650 -630 887 -998 1256 -236 235 -327 318 -839
758 -197 169 -356 311 -353 314 22 22 1443 23 2361 2z m-3555 -180 c464 -35
695 -95 1032 -267 440 -223 1024 -728 1623 -1402 470 -530 928 -1104 912
-1145 -6 -14 -113 -28 -347 -46 -689 -52 -1328 114 -2345 609 -1198 584 -2745
1613 -2964 1972 -31 50 -27 89 12 126 91 88 353 137 875 163 213 11 1025 4
1202 -10z m-63297 -585 c66 -17 193 -79 288 -140 254 -164 474 -463 545 -742
49 -193 26 -306 -101 -502 -89 -137 -110 -224 -80 -326 9 -33 48 -120 86 -195
96 -188 113 -254 113 -455 0 -147 -2 -166 -27 -240 -44 -132 -113 -239 -258
-397 -211 -230 -457 -358 -690 -358 -208 0 -313 70 -620 413 l-34 37 -68 -110
c-110 -177 -212 -265 -371 -317 -67 -21 -100 -26 -191 -27 -178 0 -319 50
-482 173 -266 200 -446 515 -472 825 -10 131 -1 230 29 292 45 92 212 234 276
234 33 0 98 44 108 72 13 38 -9 67 -102 132 -43 30 -99 73 -124 96 -65 57
-140 172 -169 261 -22 67 -24 90 -24 249 0 152 3 185 23 254 80 278 277 459
617 569 222 71 458 103 882 117 368 12 508 28 638 69 108 35 129 37 208 16z
m46018 -114 c127 -25 219 -56 315 -104 195 -98 408 -314 588 -596 60 -93 219
-378 285 -510 46 -90 49 -101 33 -109 -51 -26 -360 -93 -557 -121 -467 -66
-733 -19 -1305 229 -384 166 -473 201 -483 191 -7 -7 -6 -49 3 -123 12 -108
12 -115 -8 -153 -22 -45 -136 -157 -227 -226 -160 -121 -423 -282 -765 -469
-767 -419 -1110 -629 -1110 -679 0 -58 228 -14 542 103 79 29 332 135 563 236
516 224 716 307 866 358 407 140 690 114 739 -69 14 -51 -7 -139 -52 -218 -42
-73 -172 -208 -277 -286 -46 -35 -176 -119 -290 -186 -347 -208 -445 -279
-425 -310 11 -19 72 -39 116 -39 104 0 318 87 523 212 123 75 186 119 389 271
203 152 415 291 558 366 193 101 294 134 463 152 128 13 795 36 795 27 0 -12
-287 -466 -360 -568 -110 -154 -221 -290 -281 -343 -300 -263 -756 -407 -1294
-407 -259 0 -537 36 -1024 131 -522 103 -935 203 -1516 370 -423 121 -592 175
-656 210 -57 31 -62 65 -21 129 44 68 223 260 468 500 376 369 636 600 789
702 121 80 312 173 410 199 92 24 252 30 450 15 92 -6 117 -6 109 3 -6 7 -85
38 -175 70 -254 89 -321 131 -305 194 9 37 78 109 173 180 365 271 1106 598
1548 683 93 18 271 11 406 -15z m10519 19 c783 -54 1094 -260 1502 -997 396
-715 683 -1521 714 -2005 14 -224 -53 -511 -181 -773 -51 -103 -87 -159 -175
-270 -134 -169 -172 -233 -168 -277 8 -80 115 -90 614 -59 676 42 860 25 1036
-92 81 -54 269 -236 350 -339 298 -378 459 -832 484 -1363 21 -457 -111 -1002
-330 -1370 -303 -508 -959 -969 -1606 -1130 -194 -48 -442 -69 -663 -55 -182
12 -215 19 -459 101 -156 53 -217 69 -250 67 l-43 -3 2 -47 c1 -27 22 -132 47
-235 122 -507 249 -1580 250 -2123 1 -267 -10 -325 -99 -505 -70 -144 -159
-259 -325 -426 -212 -212 -380 -339 -575 -434 -140 -69 -224 -96 -440 -145
-351 -79 -451 -129 -720 -361 -199 -172 -288 -227 -436 -269 -238 -68 -780 -9
-1202 131 -670 223 -1104 665 -1355 1380 -135 385 -179 702 -217 1549 -9 189
-17 345 -18 346 -1 2 -119 -85 -261 -191 -392 -294 -582 -416 -858 -549 -630
-305 -1187 -334 -1780 -91 -534 219 -1060 640 -1297 1040 -71 119 -101 203
-112 311 -22 216 -122 459 -480 1163 l-169 333 0 307 c0 503 11 562 166 881
108 221 208 373 327 493 355 361 747 469 1842 506 154 6 570 13 925 16 355 3
753 10 885 16 561 23 688 70 504 189 -72 46 -142 74 -256 100 -168 40 -232 88
-662 504 -278 268 -396 366 -441 366 -19 0 -50 -64 -50 -106 0 -49 28 -133 70
-212 65 -122 207 -260 341 -333 102 -54 151 -95 147 -122 -7 -50 -145 -93
-408 -126 -210 -27 -459 -39 -940 -47 l-406 -6 -184 92 c-235 117 -333 182
-445 295 -158 157 -265 348 -369 655 -188 559 -233 995 -129 1259 42 109 190
324 443 646 164 208 301 417 388 591 77 154 100 227 111 358 21 242 120 440
310 618 149 141 318 236 571 323 324 111 707 195 1095 241 169 19 542 22 695
5 514 -58 893 -225 1196 -526 174 -174 247 -281 304 -451 93 -273 123 -612
155 -1754 34 -1203 56 -1566 111 -1850 27 -141 54 -314 54 -347 0 -16 -6 -23
-18 -23 -95 0 -451 706 -742 1470 -118 310 -243 579 -336 723 -56 86 -126 161
-165 177 -25 11 -32 10 -49 -5 -79 -71 -63 -290 46 -630 58 -181 138 -399 294
-800 170 -437 292 -770 343 -935 72 -236 86 -304 65 -313 -62 -23 -280 201
-848 868 -276 325 -419 482 -601 660 -240 235 -352 304 -481 297 -100 -6 -24
-145 286 -522 61 -74 178 -216 260 -315 346 -416 535 -706 618 -946 27 -80 32
-108 32 -189 0 -70 -4 -103 -16 -126 -49 -90 -317 -162 -998 -269 -666 -104
-910 -176 -910 -268 0 -28 32 -61 80 -81 82 -34 325 -51 1040 -71 767 -22
1033 -36 1045 -56 7 -10 -47 -50 -112 -83 -137 -68 -462 -195 -988 -385 -697
-250 -969 -405 -1064 -604 -34 -72 -61 -184 -61 -257 0 -134 84 -106 520 172
471 299 989 580 1219 659 115 40 147 18 144 -100 -3 -195 -171 -580 -405 -931
-81 -121 -151 -211 -258 -330 -164 -184 -234 -279 -223 -307 24 -61 313 84
543 271 197 160 294 298 424 600 149 344 298 543 512 682 135 88 233 115 274
74 68 -68 -33 -362 -510 -1490 -308 -729 -327 -779 -313 -816 32 -84 374 237
660 619 59 78 216 308 351 510 246 371 297 441 313 432 13 -9 26 -66 49 -215
24 -157 78 -370 150 -594 82 -255 149 -501 176 -646 38 -205 70 -336 94 -386
55 -113 197 -145 242 -54 38 75 30 126 -152 1067 -109 558 -210 1101 -240
1288 -14 90 -38 299 -35 303 2 2 25 -24 52 -57 64 -79 160 -257 283 -526 56
-121 122 -265 147 -320 170 -371 467 -953 532 -1043 33 -45 77 -65 92 -41 16
26 9 111 -21 246 -31 137 -36 183 -22 183 14 0 145 -93 249 -177 229 -185 422
-320 525 -368 62 -29 78 -31 78 -10 0 44 -145 284 -421 700 -407 613 -686
1052 -796 1250 -135 241 -226 510 -190 559 12 17 18 17 50 7 109 -36 325 -213
742 -607 314 -297 389 -366 545 -502 352 -306 559 -431 695 -420 67 6 101 28
134 88 29 52 40 171 21 239 -14 54 -79 125 -152 167 -29 17 -87 50 -128 74
-187 109 -475 349 -1053 880 -243 224 -244 225 -213 232 17 4 186 9 376 10
371 3 450 -4 513 -46 41 -27 67 -79 67 -133 0 -90 18 -106 174 -163 151 -55
258 -118 501 -294 123 -90 240 -148 308 -154 46 -4 57 -1 85 23 22 18 32 36
32 54 0 81 -121 225 -365 434 -183 158 -325 296 -325 318 0 19 54 66 215 189
61 46 164 138 231 204 109 109 125 130 167 216 25 52 58 136 73 185 25 80 28
107 28 240 1 138 -1 154 -23 198 -13 26 -37 59 -55 73 -30 26 -33 27 -141 21
-144 -7 -507 -63 -930 -142 -755 -141 -1052 -188 -1310 -205 -144 -10 -227 -8
-277 6 -68 20 55 277 295 618 160 227 322 434 635 809 388 465 601 747 676
894 57 114 15 158 -90 92 -95 -61 -223 -178 -614 -564 -389 -384 -559 -538
-632 -576 -44 -22 -91 -25 -107 -5 -50 60 -31 177 94 581 119 386 159 770 95
900 -14 28 -33 51 -42 53 -26 5 -93 -62 -143 -143 -113 -180 -227 -530 -299
-915 -31 -167 -50 -306 -76 -570 -32 -319 -59 -442 -105 -478 -32 -26 -57 -19
-97 26 -93 107 -168 418 -214 887 -21 225 -31 940 -15 1183 29 444 75 711 178
1027 207 637 584 1123 1048 1355 146 73 265 112 455 150 338 68 732 94 1080
70z m303 -5400 c34 -27 41 -62 22 -126 -31 -109 -195 -316 -310 -392 -111 -74
-210 -88 -690 -103 -472 -15 -697 -3 -712 38 -19 48 186 143 752 345 680 244
869 292 938 238z m-53348 -890 c364 -27 725 -112 960 -225 147 -71 299 -178
405 -285 173 -175 372 -452 510 -709 217 -401 481 -719 935 -1124 466 -416
720 -735 929 -1167 186 -384 267 -725 269 -1120 0 -264 -33 -486 -112 -726
-111 -339 -251 -557 -547 -845 -241 -234 -437 -367 -691 -468 -427 -169 -995
-298 -2348 -531 -1009 -174 -1579 -288 -2052 -411 -303 -78 -453 -105 -453
-81 0 14 74 79 131 115 126 80 424 220 786 371 731 304 968 469 1191 830 37
59 94 136 128 170 82 85 146 115 279 131 158 20 210 60 209 161 -1 100 -86
182 -240 230 -134 42 -218 25 -335 -67 -64 -51 -96 -101 -109 -169 -26 -137
-256 -370 -543 -550 -282 -176 -943 -491 -1068 -507 l-39 -6 0 114 c0 172 43
844 76 1194 47 507 103 826 168 954 14 27 43 63 65 80 80 63 116 184 115 381
-1 210 -45 346 -147 454 -67 72 -94 74 -149 14 -22 -24 -55 -74 -74 -113 -68
-138 -101 -321 -188 -1040 -62 -506 -81 -641 -132 -935 -92 -539 -212 -989
-365 -1373 -62 -154 -115 -267 -126 -267 -8 0 1 124 52 715 71 815 80 1126 40
1309 -24 114 -72 171 -140 169 -53 -2 -95 -40 -145 -134 -25 -46 -65 -105 -90
-131 -42 -45 -51 -50 -144 -73 -115 -29 -174 -60 -237 -126 -101 -106 -159
-262 -166 -450 -6 -146 6 -232 67 -472 22 -87 40 -161 40 -164 0 -13 -131 152
-176 222 -81 126 -241 412 -512 916 -453 842 -672 1204 -831 1370 -96 100
-155 108 -192 23 -19 -41 -20 -53 -10 -109 46 -262 261 -784 736 -1790 310
-655 404 -880 378 -906 -24 -24 -543 360 -1433 1061 -605 477 -1044 793 -1364
983 -195 115 -267 133 -328 78 -32 -28 -33 -32 -33 -108 0 -67 4 -85 30 -131
36 -66 145 -170 208 -200 26 -12 62 -22 80 -22 185 0 558 -258 1457 -1009
1025 -857 1582 -1337 1668 -1443 93 -112 72 -165 -48 -123 -76 27 -182 86
-295 163 -241 166 -295 201 -396 257 -270 152 -556 246 -895 292 -109 15 -194
17 -551 16 l-423 -3 -85 170 c-138 272 -208 365 -319 416 -60 28 -137 31 -214
9 -63 -19 -147 -92 -184 -162 -34 -62 -78 -213 -78 -267 0 -138 188 -229 980
-476 838 -260 1014 -325 1360 -501 227 -115 401 -230 506 -333 83 -82 101
-115 90 -161 -18 -71 -227 -148 -1038 -380 -675 -193 -971 -292 -1222 -406
-180 -82 -278 -142 -363 -225 -108 -105 -138 -190 -122 -344 9 -93 27 -133 69
-150 70 -29 205 26 340 139 307 257 752 476 1385 684 511 168 722 198 701 101
-19 -83 -311 -431 -835 -994 -318 -341 -421 -455 -557 -616 -197 -233 -267
-334 -332 -474 -84 -182 -84 -292 1 -367 53 -46 103 -58 252 -58 156 0 197 14
230 80 23 47 26 155 11 521 l-9 220 26 57 c50 109 207 246 621 539 366 260
635 463 972 734 339 272 454 359 485 369 83 27 121 -75 84 -220 -26 -100 -60
-159 -135 -240 -109 -118 -198 -314 -343 -760 -152 -464 -312 -1029 -368
-1295 -39 -184 -51 -389 -25 -438 31 -60 86 -69 140 -21 98 85 187 309 327
819 169 616 262 881 364 1035 40 60 77 85 124 85 55 0 68 -36 101 -304 45
-358 106 -496 320 -731 153 -167 278 -340 403 -556 60 -103 87 -135 87 -103 0
11 -9 66 -20 124 -69 359 -144 1014 -195 1705 -47 644 -68 1143 -46 1119 22
-23 220 -597 469 -1364 315 -967 429 -1338 508 -1645 81 -315 144 -425 241
-425 24 0 43 8 63 28 72 73 50 240 -140 1027 -159 659 -324 1428 -395 1838
-27 159 -31 207 -16 207 31 0 319 -284 592 -586 298 -328 522 -595 774 -924
407 -529 562 -697 661 -716 45 -8 101 13 127 47 68 92 1 281 -208 594 -167
250 -382 515 -764 945 -337 378 -504 598 -536 705 -26 85 20 120 155 119 163
-2 301 -58 445 -179 94 -79 204 -141 267 -152 48 -7 98 12 98 39 0 23 -79 102
-198 198 -45 36 -81 67 -82 70 0 3 87 18 193 33 107 15 217 34 246 43 125 37
73 122 -127 208 -176 76 -395 136 -779 215 -455 94 -676 162 -745 228 -34 32
-35 43 -5 70 34 31 62 43 125 54 85 13 424 37 712 49 555 23 706 48 807 134
47 39 89 134 124 276 33 135 51 172 105 219 71 63 150 86 424 125 400 57 835
86 1415 93 631 7 789 -7 1060 -94 558 -180 1208 -635 1540 -1078 215 -286 459
-770 530 -1049 67 -263 95 -567 77 -820 -23 -311 -72 -530 -224 -1001 -190
-586 -207 -663 -268 -1240 -47 -440 -74 -598 -127 -735 -88 -226 -273 -407
-497 -488 -45 -17 -152 -44 -239 -61 -87 -17 -193 -45 -236 -61 -182 -71 -378
-220 -734 -558 -176 -168 -310 -289 -417 -378 -714 -590 -1235 -703 -1979
-428 -429 159 -910 512 -1496 1099 -612 611 -1131 1245 -1409 1718 -74 126
-125 237 -166 362 -38 118 -50 143 -91 190 -52 59 -114 55 -211 -12 -42 -29
-83 -103 -93 -170 -9 -60 11 -180 55 -319 21 -66 44 -158 50 -205 31 -221 -39
-509 -186 -763 -253 -439 -891 -1128 -1529 -1651 -637 -523 -1193 -815 -1693
-890 -143 -22 -384 -19 -528 5 -296 51 -612 200 -871 412 -41 33 -147 130
-236 215 -521 500 -846 717 -1417 949 -268 109 -384 176 -500 293 -163 164
-260 385 -426 967 -195 690 -275 1210 -276 1804 -1 412 27 646 105 880 104
315 461 865 747 1150 328 329 699 483 1400 584 310 45 548 66 1335 121 1114
78 1634 134 1925 211 101 26 143 49 148 81 14 93 -577 106 -1788 38 -1068 -60
-1445 -57 -1788 15 -215 45 -503 165 -681 284 -638 426 -1392 1549 -1605 2392
-123 484 -107 1079 44 1659 72 278 138 460 261 713 158 329 317 562 524 767
171 170 333 281 542 371 146 62 216 99 314 165 218 146 455 363 695 635 233
265 389 408 584 537 274 181 498 247 833 247 532 0 1166 -168 1758 -466 339
-170 441 -246 749 -554 301 -300 427 -459 554 -700 229 -435 365 -951 421
-1600 44 -507 120 -796 268 -1014 48 -71 174 -206 193 -206 7 0 22 12 31 27
16 24 18 53 18 253 -1 346 -24 453 -132 596 -36 49 -79 117 -95 152 -57 126
-60 155 -65 667 -6 621 10 866 78 1145 52 213 160 458 278 634 322 476 1024
1096 1534 1353 414 208 993 312 1522 273z m62839 -1341 c131 -27 216 -118 216
-235 0 -29 5 -56 11 -60 6 -3 35 21 67 57 120 135 196 204 238 217 69 20 430
16 539 -7 92 -19 192 -62 253 -110 116 -91 219 -305 276 -580 53 -248 60 -335
61 -671 0 -441 -27 -598 -142 -830 -45 -90 -71 -129 -123 -181 -73 -74 -129
-101 -260 -125 -128 -23 -521 -36 -904 -31 -379 5 -446 12 -582 57 -329 110
-647 636 -632 1049 4 139 27 190 108 237 101 59 94 34 102 383 10 445 19 484
143 606 173 170 434 263 629 224z m-6125 -1643 c108 -56 209 -271 366 -776
278 -897 568 -2125 784 -3320 240 -1328 296 -2257 261 -4355 -40 -2454 -156
-3739 -440 -4890 -93 -375 -155 -544 -184 -497 -7 11 -92 573 -196 1297 -258
1787 -407 2613 -655 3632 -372 1524 -821 2832 -1415 4118 -413 895 -500 1141
-500 1417 0 182 42 314 169 528 240 405 339 777 401 1495 68 806 99 926 255
1003 55 26 220 80 470 151 242 69 365 111 450 153 118 60 180 71 234 44z
m-5714 -7846 c310 -30 381 -46 447 -100 74 -61 72 -149 -6 -217 -83 -73 -314
-186 -596 -291 -213 -80 -888 -267 -1523 -422 -524 -128 -717 -166 -717 -142
0 41 337 386 540 553 327 269 924 574 1240 634 96 19 328 13 615 -15z m-165
-975 c46 -55 -127 -228 -425 -427 -479 -319 -1189 -538 -1750 -541 -241 -2
-421 33 -486 94 -35 33 -36 55 -6 100 75 112 379 252 816 379 406 117 1126
298 1428 359 251 51 234 48 329 50 61 1 85 -3 94 -14z m1744 -1406 c17 -76 12
-931 -7 -1279 -50 -920 -101 -1582 -172 -2265 -14 -132 -25 -276 -25 -320 1
-74 2 -79 16 -60 29 38 72 130 147 320 148 373 235 709 311 1205 61 395 89
701 111 1195 18 405 29 537 53 609 33 101 76 72 232 -159 128 -190 194 -302
275 -467 193 -392 238 -731 154 -1143 -92 -445 -451 -1185 -910 -1875 -362
-544 -773 -1009 -998 -1128 -126 -68 -164 -31 -201 199 -70 440 -99 959 -107
1949 -6 757 0 944 37 1095 57 240 231 655 510 1220 269 544 514 965 553 952 6
-2 16 -23 21 -48z m-41109 -1029 c144 -15 255 -38 286 -61 103 -73 34 -243
-226 -554 -329 -394 -1107 -1163 -1545 -1527 -590 -490 -1576 -921 -2560
-1118 -421 -84 -713 -118 -1100 -127 -508 -11 -905 41 -1279 169 -311 106
-636 248 -636 279 0 16 219 82 795 240 590 162 812 215 1010 240 133 17 587
18 670 1 83 -17 209 -65 425 -159 238 -105 416 -175 424 -168 8 10 -76 84
-319 285 -221 182 -276 233 -266 248 10 17 146 58 456 137 349 90 547 148 868
256 581 197 1042 411 1042 484 0 58 -203 42 -840 -69 -140 -24 -464 -81 -720
-125 -792 -137 -1262 -205 -1388 -199 -64 3 -67 4 -70 30 -3 21 11 42 70 104
210 221 800 618 1309 881 735 380 1671 624 2904 758 145 16 520 13 690 -5z
m-13885 -527 c67 -30 203 -148 400 -350 297 -303 412 -484 442 -693 20 -141
-28 -306 -132 -460 -92 -135 -302 -327 -507 -464 -202 -133 -302 -168 -488
-169 -149 -1 -218 18 -320 88 -500 339 -698 853 -504 1309 71 167 259 387 459
538 116 87 310 189 405 213 79 19 187 14 245 -12z m1654 -2950 c52 -103 290
-931 445 -1548 133 -531 193 -829 194 -960 1 -137 -26 -164 -173 -173 -121 -7
-186 13 -255 79 -153 145 -225 492 -281 1359 -27 418 -12 1084 27 1233 12 44
23 47 43 10z m706 -6053 c338 -24 462 -46 576 -101 87 -41 134 -85 134 -125 0
-79 -190 -156 -501 -203 -302 -46 -668 -67 -1684 -97 -126 -4 -225 -9 -220
-10 6 -2 246 -26 535 -54 1370 -132 1430 -139 1430 -168 0 -17 -333 -374 -988
-1058 l-383 -401 -882 -6 c-1028 -7 -1428 -21 -1892 -68 -207 -20 -362 -47
-412 -71 -40 -19 -35 -40 12 -51 50 -11 507 -13 1515 -8 806 5 978 0 1130 -35
71 -16 100 -36 100 -69 0 -46 -169 -274 -424 -570 -295 -342 -513 -578 -1256
-1360 -167 -176 -305 -322 -307 -324 -5 -7 -262 -30 -448 -41 -99 -5 -484 -15
-855 -20 -371 -6 -697 -14 -725 -18 l-50 -8 65 -12 c36 -7 202 -30 370 -52
352 -46 725 -105 808 -126 151 -39 249 -137 305 -306 32 -92 37 -196 22 -375
-30 -339 -121 -1104 -171 -1436 -45 -300 -22 -269 115 153 49 151 130 401 180
555 181 555 322 863 517 1122 330 441 1743 1809 1884 1825 44 6 46 -21 6 -148
-93 -299 -130 -677 -143 -1449 -6 -412 4 -1018 17 -994 10 18 77 426 184 1129
153 997 217 1282 343 1535 89 178 177 290 432 548 248 252 431 403 545 451 53
22 68 20 98 -11 47 -50 143 -384 392 -1358 176 -690 263 -996 313 -1104 21
-45 27 -51 35 -36 12 20 -6 462 -27 700 -45 488 -161 1167 -335 1960 -38 176
-70 325 -70 330 0 11 103 122 537 577 258 271 531 537 592 576 22 15 25 15 41
-6 26 -32 145 -317 196 -467 206 -617 329 -1602 284 -2265 -51 -744 -279
-1228 -855 -1819 -647 -663 -1503 -1243 -2415 -1636 -950 -410 -1870 -618
-3545 -804 -906 -101 -1375 -117 -1465 -52 -112 81 62 283 995 1160 893 840
1160 1104 1223 1211 45 76 -5 81 -104 11 -189 -133 -584 -496 -1389 -1276
-541 -525 -902 -865 -919 -865 -20 0 2 216 70 690 130 913 239 1409 451 2055
543 1658 1485 3054 2658 3936 466 351 953 611 1470 785 337 113 499 147 786
164 181 11 906 4 1099 -10z m3341 -6517 c140 -148 324 -342 409 -433 993
-1060 2078 -2145 2440 -2438 l105 -85 -175 7 c-461 18 -612 51 -799 177 -318
212 -680 692 -1900 2514 -303 453 -350 525 -338 525 2 0 118 -120 258 -267z
m3309 -3683 c398 -19 649 -52 948 -125 438 -108 601 -191 845 -425 519 -499
908 -1400 1062 -2460 33 -224 62 -487 79 -715 41 -531 29 -716 -51 -746 -34
-13 -167 5 -239 32 -203 76 -419 330 -618 728 -192 381 -253 591 -203 689 23
42 77 76 152 97 217 58 195 91 -88 131 -223 32 -339 63 -462 124 -224 110
-329 239 -541 656 -56 111 -114 239 -129 284 -35 114 -35 114 143 118 160 4
292 -6 677 -54 349 -43 484 -51 553 -34 89 21 110 84 47 139 -62 54 -171 89
-380 121 -117 17 -224 27 -655 60 -447 35 -665 98 -890 258 -290 207 -879 845
-906 981 -8 39 12 64 76 96 62 31 89 36 215 45 61 4 119 8 130 8 11 1 117 -3
235 -8z m-1559 -197 c153 -116 321 -409 437 -763 82 -249 109 -394 122 -655
16 -302 54 -552 121 -785 34 -117 85 -223 111 -228 32 -6 48 104 78 546 32
462 59 641 111 744 31 62 75 98 119 98 95 -1 233 -135 410 -400 262 -393 439
-767 535 -1132 60 -232 71 -309 111 -793 l8 -90 32 170 c18 94 63 332 99 530
37 198 68 361 70 363 4 5 299 -316 406 -443 424 -499 829 -1095 829 -1221 0
-29 -4 -35 -27 -40 -16 -3 -34 -7 -41 -10 -21 -6 -170 15 -290 42 -426 95
-1393 403 -1897 604 -425 170 -624 294 -853 534 -409 430 -710 1076 -813 1746
-32 206 -33 580 -1 750 54 296 143 480 232 480 19 0 51 -16 91 -47z m50309
-2083 c293 -17 431 -48 590 -131 142 -74 246 -182 333 -347 127 -241 180 -579
147 -937 -46 -492 -208 -893 -465 -1151 -123 -124 -164 -144 -345 -164 -137
-16 -174 -5 -260 76 -99 94 -111 128 -121 334 -4 91 -12 178 -18 193 -23 59
-53 13 -101 -158 -60 -210 -138 -336 -215 -351 -112 -21 -431 137 -632 313
-154 134 -279 368 -335 626 -19 87 -22 133 -22 317 0 181 3 236 23 345 27 155
106 469 154 616 100 304 208 394 504 418 143 12 562 12 763 1z m-34396 -8951
c279 -292 318 -387 360 -889 41 -479 63 -1150 76 -2245 14 -1191 33 -1745 76
-2140 23 -219 53 -305 104 -305 30 0 101 59 264 219 264 260 535 557 960 1054
309 362 397 460 580 646 285 290 446 403 630 443 154 33 419 -55 547 -182 73
-73 94 -130 86 -244 -18 -282 -310 -736 -1215 -1888 -149 -190 -272 -349 -272
-353 0 -4 100 -111 223 -238 399 -416 598 -668 820 -1038 321 -535 610 -1156
678 -1459 22 -102 25 -246 5 -294 -17 -42 -77 -78 -166 -103 -93 -25 -442 -25
-584 1 -197 36 -253 64 -372 187 -148 154 -275 346 -582 884 -276 484 -398
665 -543 805 -154 149 -312 201 -520 170 -214 -31 -475 -152 -586 -273 -73
-79 -97 -198 -133 -677 -47 -619 -90 -824 -212 -1006 -86 -129 -229 -234 -358
-263 -106 -25 -262 -6 -358 43 -127 65 -179 189 -217 519 -28 243 -34 417 -46
1258 -13 986 -6 5649 10 6150 21 664 80 944 229 1097 73 75 334 242 377 242
16 0 57 -36 139 -121z m15649 -3189 c125 -18 290 -113 363 -208 130 -170 178
-675 206 -2146 12 -653 0 -2080 -22 -2571 -26 -580 -75 -773 -224 -885 -67
-50 -262 -156 -331 -181 -68 -24 -88 -24 -160 1 -107 37 -234 151 -410 370
-55 68 -122 148 -150 177 l-50 53 -336 -164 c-579 -283 -875 -404 -1154 -472
-196 -48 -307 -41 -517 32 -520 181 -1212 725 -1463 1151 -225 380 -408 1267
-500 2431 -85 1073 14 1960 243 2159 71 62 98 67 330 60 195 -6 592 -32 638
-42 28 -6 28 -11 54 -570 63 -1347 101 -1983 141 -2395 65 -673 146 -902 389
-1104 381 -318 742 -407 1127 -280 88 29 258 112 348 169 117 74 330 240 411
320 209 207 289 426 338 925 22 221 33 396 61 985 67 1386 111 1736 246 1972
65 113 179 196 291 213 29 4 55 8 58 9 3 0 36 -4 73 -9z m8688 -36 c48 -14 68
-30 170 -132 163 -164 179 -203 264 -632 20 -102 42 -191 47 -197 8 -10 15
-10 32 -1 11 6 127 115 256 242 140 138 279 265 345 314 243 183 602 319 955
362 155 19 424 14 586 -9 498 -73 949 -309 1229 -642 140 -167 277 -397 410
-686 106 -231 108 -283 17 -418 -92 -137 -448 -480 -554 -536 -109 -56 -226
14 -593 356 -393 366 -577 498 -805 576 -88 31 -104 33 -220 33 -149 -1 -266
-28 -403 -93 -278 -133 -627 -454 -796 -734 -236 -391 -327 -872 -376 -1987
-41 -960 -80 -1210 -217 -1420 -82 -126 -275 -297 -408 -363 -59 -29 -73 -32
-160 -32 -88 0 -101 3 -162 33 -266 131 -347 396 -388 1277 -42 907 -42 2624
0 3425 18 342 46 637 76 813 43 256 154 399 344 449 87 23 277 24 351 2z
m13289 6 c296 -31 713 -131 1025 -247 392 -145 701 -354 947 -641 447 -521
646 -1256 773 -2857 52 -669 128 -2105 111 -2122 -9 -9 -411 15 -533 32 -274
38 -463 118 -698 296 -135 102 -193 131 -275 137 -138 10 -266 -40 -820 -319
-513 -257 -517 -259 -713 -259 -308 0 -449 38 -822 220 -613 301 -912 575
-1146 1055 -129 265 -139 317 -139 730 0 301 9 418 40 521 29 94 136 311 205
414 182 272 496 583 695 689 133 71 368 102 780 102 302 0 567 -17 858 -57
243 -32 352 -54 637 -125 240 -60 334 -74 355 -53 24 24 31 94 16 155 -63 246
-414 697 -651 836 -161 95 -238 105 -995 138 -753 33 -1011 62 -1159 132 -103
49 -157 125 -221 312 -99 289 -24 424 336 604 314 157 637 266 879 296 50 6
101 13 115 15 55 8 310 5 400 -4z m-60280 -45 c314 -11 778 -85 1125 -180 212
-57 373 -149 492 -278 107 -117 123 -205 64 -352 -99 -246 -316 -533 -454
-599 -99 -47 -203 -45 -557 14 -96 16 -242 43 -325 60 -759 154 -1127 131
-1394 -87 -90 -75 -120 -157 -86 -239 21 -52 129 -158 220 -219 161 -106 330
-182 1057 -471 644 -256 877 -361 1103 -497 317 -190 566 -445 686 -701 82
-175 119 -376 119 -646 0 -465 -109 -738 -420 -1051 -374 -375 -788 -567
-1395 -646 -177 -23 -785 -26 -960 -5 -358 43 -641 137 -1111 368 -491 241
-733 434 -734 586 -1 194 432 607 692 660 51 11 70 9 189 -16 73 -15 232 -55
353 -88 363 -98 665 -155 1041 -194 195 -20 562 -23 655 -6 156 30 247 79 276
148 18 44 18 143 -1 223 -43 180 -150 301 -377 424 -153 83 -375 173 -838 342
-930 339 -1386 598 -1635 929 -101 133 -177 330 -204 526 -39 287 -17 542 69
801 209 631 750 1037 1550 1163 175 28 451 46 600 39 30 -1 120 -5 200 -8z
m11340 -6 c423 -31 751 -93 1085 -204 826 -275 1299 -771 1515 -1590 111 -421
173 -905 235 -1850 39 -595 61 -856 115 -1355 16 -151 34 -342 40 -425 10
-141 5 -331 -9 -354 -12 -19 -487 -103 -592 -105 -95 -1 -96 -1 -192 47 -151
75 -242 150 -518 428 l-257 258 -153 -111 c-557 -402 -859 -540 -1274 -578
-303 -28 -641 8 -905 96 -133 44 -320 135 -430 209 -530 357 -841 876 -901
1502 -30 315 43 661 190 899 138 222 432 527 650 674 181 121 496 227 834 278
163 24 663 24 832 -1 226 -34 340 -63 700 -175 109 -34 250 -37 291 -6 54 40
69 70 68 137 -4 224 -322 619 -622 771 -188 95 -345 117 -1112 156 -433 22
-576 33 -720 56 -278 44 -375 103 -491 300 -125 212 -148 387 -68 508 121 181
613 372 1114 431 218 25 281 26 575 4z m37424 -10729 c455 -88 1069 -354 1264
-547 104 -103 133 -234 78 -347 -36 -74 -134 -163 -239 -215 -230 -116 -392
-98 -862 96 -309 128 -437 158 -635 150 -152 -6 -250 -33 -414 -111 -195 -95
-307 -181 -346 -269 -29 -62 -26 -158 5 -226 33 -70 137 -173 245 -243 221
-143 451 -244 994 -438 899 -320 1226 -525 1414 -887 103 -199 121 -285 122
-590 0 -498 -77 -746 -297 -954 -89 -84 -185 -147 -341 -225 -249 -123 -468
-200 -687 -240 -83 -16 -151 -19 -405 -19 -201 0 -338 5 -400 14 -343 48 -595
129 -925 296 -413 210 -689 402 -730 509 -16 42 -16 45 6 87 12 24 42 71 67
104 65 85 265 284 342 340 59 43 69 47 109 42 52 -6 241 -97 476 -231 554
-316 864 -397 1197 -312 178 45 352 144 545 310 98 84 193 190 225 249 64 120
-36 240 -323 387 -185 95 -330 156 -759 322 -882 340 -1166 488 -1387 721
-156 166 -256 355 -315 597 -8 35 -13 117 -13 230 1 209 17 287 95 445 61 124
121 204 242 321 262 254 642 471 1033 590 214 65 431 80 619 44z m-36084 -125
c1265 -61 1691 -93 1877 -140 317 -81 609 -326 756 -637 130 -275 184 -612
141 -895 -31 -215 -98 -387 -178 -460 -53 -48 -64 -88 -48 -176 15 -82 63
-178 162 -327 215 -323 263 -502 263 -975 0 -298 -7 -350 -63 -491 -71 -179
-174 -328 -284 -410 -143 -108 -359 -181 -626 -213 -368 -44 -1554 -110 -2535
-141 -181 -5 -369 -12 -417 -15 l-88 -5 0 2467 0 2466 163 -7 c89 -4 484 -22
877 -41z m19408 -317 c-3 -284 -5 -328 -21 -363 -49 -108 -134 -143 -402 -165
-108 -8 -956 -40 -1079 -40 l-36 0 0 -1975 0 -1975 -435 0 -435 0 0 1975 0
1975 -36 0 c-123 0 -971 32 -1079 40 -268 22 -353 57 -402 165 -16 35 -18 79
-21 363 l-3 322 1976 0 1976 0 -3 -322z m9050 197 c4 -148 -14 -497 -28 -546
-29 -101 -154 -146 -472 -168 -180 -13 -737 -27 -1613 -42 -374 -6 -681 -12
-683 -13 -1 -2 4 -266 10 -587 l13 -584 305 -7 c1117 -24 1322 -30 1465 -39
269 -17 382 -47 429 -112 18 -24 21 -46 24 -151 4 -150 -6 -194 -57 -245 -117
-117 -490 -167 -1659 -221 -228 -10 -416 -21 -419 -24 -13 -13 -93 -1050 -93
-1203 l0 -93 28 0 c67 0 523 33 962 70 741 62 866 71 1155 77 392 8 542 -21
631 -119 65 -72 107 -209 107 -353 1 -109 -24 -172 -83 -211 -132 -88 -869
-143 -2450 -184 -454 -12 -1106 -18 -1114 -10 -14 15 -27 449 -76 2710 -17
751 -35 1493 -40 1650 -5 157 -10 340 -10 408 l0 122 1833 -2 1832 -3 3 -120z
m-19029 105 c121 -14 143 -33 186 -157 58 -167 65 -421 65 -2308 0 -1960 -5
-2073 -87 -2235 -54 -106 -73 -115 -233 -115 -144 1 -198 18 -244 77 -108 143
-146 643 -146 1938 0 1155 31 2228 75 2568 14 116 53 208 95 229 30 15 172 17
289 3z"/>
<path d="M43276 91025 c-64 -31 -139 -106 -241 -240 -172 -228 -305 -451 -305
-511 0 -104 182 -313 371 -425 177 -104 318 -106 524 -5 165 81 292 196 349
316 27 56 31 76 30 140 -2 127 -60 239 -218 422 -135 155 -365 329 -432 327
-16 0 -51 -11 -78 -24z"/>
<path d="M16774 84905 c-20 -51 205 -370 555 -788 104 -124 275 -335 382 -469
403 -507 457 -574 479 -593 22 -19 21 -18 -5 34 -15 30 -59 106 -98 170 -389
639 -1023 1468 -1251 1639 -34 26 -54 28 -62 7z"/>
<path d="M58284 84610 c-69 -13 -129 -33 -129 -44 0 -5 31 -25 68 -44 110 -56
231 -56 301 -1 37 29 33 57 -9 75 -44 18 -165 26 -231 14z"/>
<path d="M59885 85428 c-25 -126 -23 -310 6 -544 13 -101 26 -184 29 -184 14
0 45 332 44 475 -1 122 -5 167 -24 240 -12 50 -26 93 -29 98 -4 4 -16 -35 -26
-85z"/>
<path d="M41250 74546 c0 -9 23 -163 50 -343 83 -539 96 -710 65 -886 -32
-184 -93 -309 -316 -648 -211 -321 -256 -427 -215 -508 39 -74 123 -89 254
-45 130 43 340 175 434 271 173 177 216 369 248 1118 19 445 34 545 91 610 64
73 229 124 353 109 258 -31 416 -162 416 -343 -1 -135 -65 -236 -307 -482 -95
-97 -173 -180 -173 -183 0 -9 47 0 220 41 225 53 327 73 435 84 112 11 173 34
223 82 79 76 108 162 121 367 14 213 56 321 139 364 44 22 427 51 1017 76 691
29 924 52 1024 102 56 28 68 67 28 92 -60 40 -286 75 -617 96 -374 24 -803 31
-2112 37 -1284 6 -1378 5 -1378 -11z"/>
<path d="M44530 73509 c-610 -7 -850 -18 -985 -45 -101 -20 -177 -49 -200 -74
-18 -20 -18 -21 5 -45 13 -14 52 -34 88 -45 88 -27 231 -26 562 5 304 28 503
32 575 11 100 -31 159 -134 135 -236 -14 -60 -59 -124 -101 -146 -42 -21 -229
-60 -354 -73 -158 -17 -411 -30 -800 -41 -781 -22 -1149 -38 -1317 -56 -94
-10 -84 -27 142 -259 86 -88 171 -181 189 -208 131 -191 157 -399 148 -1161
-4 -321 -9 -471 -21 -551 -38 -268 -104 -354 -271 -355 -39 0 -98 7 -130 15
-232 60 -399 329 -422 680 -7 115 12 188 64 246 55 60 102 80 226 95 65 7 118
19 133 29 73 48 69 161 -17 425 -75 229 -151 305 -264 266 -119 -40 -401 -263
-661 -521 -167 -165 -254 -271 -254 -309 0 -32 33 -46 126 -56 102 -11 147
-31 185 -84 58 -78 78 -182 108 -537 28 -324 43 -385 110 -442 58 -49 85 -52
391 -51 255 1 844 26 927 40 23 3 34 11 38 27 7 31 37 429 90 1172 59 831 99
1312 110 1323 19 19 779 64 1336 78 l256 7 6 -24 c27 -99 77 -1110 77 -1544
-1 -556 -39 -604 -667 -856 -128 -51 -231 -94 -230 -95 1 -2 59 -10 127 -18
210 -26 456 -36 903 -36 l427 0 0 98 c0 53 -5 216 -10 362 -5 146 -17 501 -25
790 -9 289 -22 719 -30 955 -8 237 -19 610 -25 830 -7 220 -13 406 -15 413 -3
8 -21 11 -52 10 -26 -1 -311 -5 -633 -9z"/>
<path d="M43805 72087 c-119 -51 -179 -89 -258 -166 -87 -83 -130 -180 -94
-210 24 -19 167 -33 274 -27 181 12 329 64 406 143 87 91 65 179 -66 264 -83
54 -128 53 -262 -4z"/>
<path d="M43615 71420 c-135 -22 -206 -62 -226 -129 -16 -55 1 -99 62 -156 88
-82 207 -120 355 -113 106 5 178 33 248 98 122 113 109 243 -29 286 -60 19
-320 28 -410 14z"/>
<path d="M27845 69670 c-400 -24 -709 -98 -1000 -240 -234 -114 -422 -249
-644 -465 -283 -275 -463 -529 -547 -770 -25 -71 -28 -94 -28 -210 0 -113 3
-138 23 -188 46 -117 103 -151 214 -128 127 26 283 112 697 386 570 377 799
484 1184 555 248 45 582 52 811 15 369 -58 728 -191 1065 -395 412 -249 631
-481 824 -874 218 -442 296 -746 401 -1557 20 -152 44 -323 53 -380 l18 -104
39 -13 c82 -27 631 -34 2235 -28 866 4 1685 9 1819 12 l244 7 -6 266 c-3 146
-11 291 -17 321 -35 158 -112 208 -370 239 -212 26 -929 73 -1635 106 -995 47
-1276 90 -1335 205 -20 39 -40 161 -40 240 0 186 -115 579 -271 930 -207 464
-421 761 -819 1137 -337 318 -520 452 -815 593 -275 133 -419 182 -704 240
-415 84 -978 124 -1396 100z"/>
<path d="M42985 67411 c-130 -59 -146 -151 -165 -926 -10 -421 -16 -587 -26
-701 l-5 -62 -62 -6 c-34 -4 -251 -34 -482 -67 -644 -91 -821 -125 -942 -179
-109 -49 -118 -99 -35 -208 145 -192 307 -219 1087 -183 241 11 442 18 444 15
3 -3 11 -474 17 -1047 20 -1750 26 -1875 104 -2034 55 -112 123 -140 220 -90
138 69 153 262 169 2205 4 557 10 1014 12 1016 2 3 69 -4 149 -14 343 -45 496
-54 875 -55 334 0 375 2 425 18 86 29 186 101 296 211 104 104 164 191 164
238 0 38 -43 83 -98 105 -67 26 -303 23 -517 -5 -287 -38 -388 -44 -602 -39
-285 6 -387 34 -493 133 -70 65 -93 125 -98 254 -3 82 1 132 19 225 31 156 34
474 6 625 -43 236 -128 440 -216 523 -72 67 -164 85 -246 48z"/>
<path d="M40695 57250 c-450 -7 -777 -22 -1535 -70 -1967 -124 -3436 -285
-4720 -516 -388 -70 -738 -143 -1252 -261 l-468 -107 0 -100 c0 -194 30 -1423
40 -1656 48 -1089 167 -1804 447 -2680 403 -1265 980 -2246 1968 -3345 213
-237 594 -632 825 -854 413 -396 660 -612 972 -847 396 -298 709 -487 1512
-914 77 -41 114 -65 105 -70 -71 -37 -1151 -75 -4254 -150 -2456 -59 -4079
-111 -4865 -155 -971 -55 -1225 -104 -1375 -266 -70 -76 -97 -145 -103 -265
-6 -121 9 -163 109 -314 273 -408 477 -466 1874 -535 981 -48 1300 -89 1400
-176 23 -21 40 -49 54 -92 48 -146 111 -444 111 -523 l0 -44 -132 0 c-150 0
-667 13 -1428 35 -905 27 -1416 35 -2195 35 -1226 0 -1957 -29 -2111 -84 -127
-44 -283 -147 -397 -259 -95 -93 -107 -127 -107 -292 0 -203 32 -282 179 -437
102 -108 159 -150 236 -176 200 -68 731 -109 1815 -142 1274 -39 4205 -50
13060 -50 9001 0 12993 13 15610 50 2984 42 3576 70 3798 175 309 146 359 532
108 837 -121 146 -369 283 -619 343 -350 83 -822 101 -3357 130 -1885 21
-2586 37 -2855 66 -168 17 -339 75 -397 133 -35 35 -43 75 -28 136 49 202 304
277 1105 325 333 19 716 32 1515 50 698 16 1025 29 1175 46 264 31 437 130
527 304 120 232 128 400 29 610 -111 238 -215 316 -476 360 -186 31 -291 34
-2245 75 -826 17 -2243 50 -2635 60 -3215 85 -4810 148 -4858 190 -4 4 92 63
215 130 1029 569 1426 837 1973 1330 183 164 743 722 925 920 557 607 1024
1226 1425 1890 755 1249 1376 3247 1476 4753 15 226 6 651 -16 801 -24 160
-68 323 -114 420 -102 219 -257 304 -796 441 -1002 254 -2193 418 -3880 535
-159 11 -321 22 -360 25 -715 54 -2814 148 -3675 165 -688 13 -2756 20 -3335
10z m2100 -1180 c1493 -22 2182 -46 3440 -115 1595 -89 2624 -184 3190 -296
274 -54 371 -86 381 -126 8 -32 -8 -49 -74 -73 -405 -152 -2302 -338 -4312
-425 -1564 -67 -3308 -69 -5155 -5 -1391 48 -2700 135 -3330 221 -662 91
-1685 270 -1752 307 -11 7 -6 11 24 15 58 10 669 72 988 102 154 14 1059 100
2010 190 952 90 1784 169 1850 174 552 48 1131 55 2740 31z m-8166 -1345 c75
-41 161 -140 210 -238 34 -70 57 -156 156 -572 220 -921 356 -1411 489 -1753
363 -933 953 -1858 1766 -2767 204 -229 874 -893 1080 -1072 350 -304 570
-467 1223 -905 613 -412 747 -511 747 -554 0 -14 -8 -16 -60 -10 -145 17 -467
112 -740 219 -877 343 -2070 1030 -2695 1552 -759 633 -1496 1715 -1983 2910
-237 583 -402 1148 -512 1756 -109 599 -169 1164 -140 1304 30 143 68 165 285
162 112 -2 123 -4 174 -32z"/>
<path d="M43280 35296 c-76 -17 -129 -46 -177 -99 -73 -79 -113 -184 -113
-297 0 -112 34 -178 116 -226 40 -24 52 -26 117 -22 189 13 316 139 349 345
16 104 -18 225 -77 271 -25 20 -107 43 -143 41 -9 0 -42 -6 -72 -13z"/>
<path d="M42166 34260 c-137 -22 -193 -82 -168 -177 25 -93 107 -175 208 -210
96 -33 227 7 313 96 57 58 75 105 68 169 -6 57 -35 85 -110 107 -64 19 -231
27 -311 15z"/>
<path d="M44102 34235 c-61 -51 -99 -206 -72 -291 40 -126 146 -169 246 -101
89 59 134 170 101 248 -20 48 -72 106 -126 141 -58 36 -108 37 -149 3z"/>
<path d="M43233 33555 c-86 -64 -187 -176 -220 -243 -23 -47 -28 -70 -28 -132
0 -86 15 -125 76 -194 124 -141 318 -101 390 81 20 49 23 77 24 183 0 150 -23
233 -83 300 -56 61 -84 62 -159 5z"/>
<path d="M77244 73346 c-33 -25 -8 -60 123 -178 116 -104 940 -793 971 -812
49 -30 -110 160 -327 391 -220 235 -524 503 -641 567 -70 38 -105 47 -126 32z"/>
<path d="M78426 72104 c-34 -34 -13 -86 66 -160 103 -97 390 -303 396 -284 9
27 -312 394 -382 435 -50 29 -59 30 -80 9z"/>
<path d="M9714 71496 c-90 -42 -191 -174 -286 -371 -85 -179 -89 -256 -20
-357 47 -68 185 -193 247 -224 96 -46 180 -23 365 101 172 115 280 221 280
274 0 94 -381 534 -509 588 -24 10 -35 8 -77 -11z"/>
<path d="M67175 68634 c-186 -20 -507 -125 -713 -235 -380 -202 -899 -663
-962 -855 -10 -29 -9 -39 4 -59 14 -21 25 -25 62 -25 109 0 294 88 644 306
261 163 469 278 660 364 332 150 414 196 502 278 77 72 95 123 62 171 -9 13
-31 29 -48 36 -35 15 -150 25 -211 19z"/>
<path d="M63868 63913 c-46 -50 -50 -162 -13 -308 13 -54 26 -100 28 -102 2
-2 19 34 37 79 29 72 33 95 33 173 1 132 -40 208 -85 158z"/>
<path d="M14315 62358 c-70 -36 -200 -144 -277 -230 -312 -347 -1304 -1642
-1488 -1943 -72 -118 -64 -195 20 -195 79 0 171 103 269 303 137 281 385 602
717 932 339 337 624 541 780 560 33 4 71 14 85 21 84 43 107 330 39 489 -37
86 -72 101 -145 63z"/>
<path d="M14720 58320 c-123 -26 -190 -54 -293 -123 -120 -80 -322 -280 -362
-359 -29 -55 -29 -58 -12 -75 16 -16 38 -18 195 -17 244 1 580 43 776 96 103
28 192 86 224 148 19 37 22 55 18 98 -12 102 -53 164 -136 207 -96 48 -256 58
-410 25z"/>
<path d="M14011 56944 c-12 -15 -21 -34 -21 -42 0 -64 142 -216 318 -340 342
-242 713 -398 894 -378 125 15 135 35 56 121 -65 72 -164 152 -303 247 -285
196 -542 327 -769 393 -115 33 -149 33 -175 -1z"/>
<path d="M77205 64161 c-46 -29 -78 -67 -149 -181 -86 -137 -147 -276 -153
-349 -5 -48 -1 -65 20 -108 57 -111 209 -275 303 -325 l44 -23 37 20 c154 85
205 633 82 883 -47 96 -115 126 -184 83z"/>
<path d="M25157 51777 c-35 -19 -97 -59 -138 -89 -158 -117 -584 -476 -575
-485 11 -11 442 250 631 382 158 110 231 199 179 219 -24 9 -28 8 -97 -27z"/>
<path d="M24129 51086 c-20 -7 -74 -34 -120 -61 -155 -89 -245 -175 -237 -227
3 -21 8 -23 53 -23 94 1 274 114 323 203 53 95 46 130 -19 108z"/>
<path d="M12119 36103 c-16 -40 -14 -239 2 -288 28 -82 70 -47 96 80 12 62 13
88 4 133 -18 90 -79 134 -102 75z"/>
<path d="M69087 29582 c-41 -45 -67 -177 -67 -339 0 -109 -17 -172 -56 -211
l-34 -34 -117 4 -118 3 1 -46 c1 -25 12 -65 23 -88 46 -90 200 -213 363 -291
181 -86 320 -93 372 -18 77 110 -133 831 -290 995 -45 48 -54 51 -77 25z"/>
<path d="M72135 14637 c-180 -38 -255 -70 -360 -156 -155 -127 -278 -342 -292
-512 -5 -57 -2 -74 19 -120 67 -145 285 -352 472 -448 134 -68 227 -86 461
-85 211 0 289 10 486 60 377 94 733 304 863 507 50 78 69 144 64 224 -5 91
-36 153 -118 233 -134 132 -348 218 -670 270 -180 28 -411 50 -600 55 -158 5
-172 3 -325 -28z"/>
<path d="M23429 14739 c-71 -10 -135 -35 -251 -100 -141 -79 -206 -125 -288
-208 -82 -83 -140 -169 -172 -259 -30 -80 -36 -239 -13 -318 71 -246 323 -440
655 -504 426 -82 942 37 1340 311 258 176 442 438 386 547 -78 151 -797 452
-1259 527 -97 16 -305 18 -398 4z"/>
<path d="M24720 6095 c0 -107 31 -632 45 -755 24 -215 44 -269 115 -318 96
-65 318 -91 610 -73 492 31 854 98 1057 196 150 73 317 224 364 330 25 56 34
175 20 265 -27 176 -117 278 -296 340 -124 43 -500 60 -1312 60 l-603 0 0 -45z"/>
<path d="M25382 4160 c-149 -10 -306 -41 -394 -79 -109 -47 -173 -142 -202
-301 -29 -159 -62 -679 -54 -850 6 -132 -4 -127 220 -106 859 81 1419 156
1653 222 225 64 401 186 440 305 21 63 16 238 -10 334 -43 158 -157 330 -260
390 -61 36 -175 62 -327 74 -180 15 -889 22 -1066 11z"/>
</g>
</svg>
